<?xml version="1.0" standalone="yes"?>
<svg xmlns="http://www.w3.org/2000/svg" width="1200" height="1200">
<path style="fill:#41a799; stroke:none;" d="M0 0L0 1200L1200 1200L1200 0L0 0z"/>
<path style="fill:#f5e1db; stroke:none;" d="M300 375L300 390L900 390L900 375L300 375z"/>
<path style="fill:#6bb5a7; stroke:none;" d="M549 455L549 456L562 456L549 455M473 456L474 457L473 456z"/>
<path style="fill:#99c3b9; stroke:none;" d="M474 456L474 457L477 457L474 456M548 456L548 461L549 461L548 456z"/>
<path style="fill:#f5e1db; stroke:none;" d="M549 456L549 461L556 461L556 486L549 486L549 491L569 491L569 486L562 486L562 456L549 456z"/>
<path style="fill:#99c3b9; stroke:none;" d="M562 456L562 486L563 486L562 456z"/>
<path style="fill:#6bb5a7; stroke:none;" d="M323 457L324 458L323 457z"/>
<path style="fill:#99c3b9; stroke:none;" d="M323 491L324 491L324 458L336 458C317.26 450.136 323 480.416 323 491z"/>
<path style="fill:#6bb5a7; stroke:none;" d="M336.667 457.333L337.333 457.667L336.667 457.333z"/>
<path style="fill:#99c3b9; stroke:none;" d="M472 457L473 458L472 457z"/>
<path style="fill:#f5e1db; stroke:none;" d="M473.603 458.071C471.112 459.818 473.987 463.504 476.397 461.868C478.915 460.159 476.08 456.335 473.603 458.071z"/>
<path style="fill:#c9d3cb; stroke:none;" d="M477 457L478 458L477 457z"/>
<path style="fill:#6bb5a7; stroke:none;" d="M603 457L604 458L603 457z"/>
<path style="fill:#99c3b9; stroke:none;" d="M603 491L604 491L604 458L616 458C597.26 450.136 603 480.416 603 491z"/>
<path style="fill:#6bb5a7; stroke:none;" d="M616.667 457.333L617.333 457.667L616.667 457.333z"/>
<path style="fill:#f5e1db; stroke:none;" d="M324 458L324 491L330 491L329 479C332.787 478.098 337.506 478.661 340.956 476.821C347.622 473.265 347.552 462.975 340.956 459.457C336.126 456.881 329.294 458 324 458z"/>
<path style="fill:#c9d3cb; stroke:none;" d="M339 458L340 459L339 458z"/>
<path style="fill:#6bb5a7; stroke:none;" d="M340 458L341 459L340 458M471 458L472 459L471 458z"/>
<path style="fill:#c9d3cb; stroke:none;" d="M478 458L478 461L479 461L478 458z"/>
<path style="fill:#f5e1db; stroke:none;" d="M604 458L604 491L610 491L609 479C612.787 478.099 617.506 478.661 620.956 476.821C627.622 473.265 627.552 462.975 620.956 459.457C616.126 456.881 609.294 458 604 458z"/>
<path style="fill:#c9d3cb; stroke:none;" d="M619 458L620 459L619 458z"/>
<path style="fill:#6bb5a7; stroke:none;" d="M620 458L621 459L620 458z"/>
<path style="fill:#c9d3cb; stroke:none;" d="M341 459L342 460L341 459z"/>
<path style="fill:#6bb5a7; stroke:none;" d="M342 459L343 460L342 459z"/>
<path style="fill:#99c3b9; stroke:none;" d="M471 459L472 460L471 459z"/>
<path style="fill:#c9d3cb; stroke:none;" d="M621 459L622 460L621 459z"/>
<path style="fill:#6bb5a7; stroke:none;" d="M622 459L623 460L622 459z"/>
<path style="fill:#99c3b9; stroke:none;" d="M343 460L344 461L343 460M440 460L440 466L441 466L440 460z"/>
<path style="fill:#f5e1db; stroke:none;" d="M441 460C440.665 464.394 439.444 466.291 435 467L436 471L440 470C442.825 481.866 439.837 494.086 457 490L448.603 484.527L447 470L455 471L456 467L447 467L446 460L441 460z"/>
<path style="fill:#c9d3cb; stroke:none;" d="M444 460L445 461L444 460M446 460L447 461L446 460z"/>
<path style="fill:#6bb5a7; stroke:none;" d="M471 460L472 461L471 460z"/>
<path style="fill:#99c3b9; stroke:none;" d="M623 460L624 461L623 460z"/>
<path style="fill:#6bb5a7; stroke:none;" d="M344 461L345 462L344 461z"/>
<path style="fill:#99c3b9; stroke:none;" d="M478 461L479 462L478 461z"/>
<path style="fill:#6bb5a7; stroke:none;" d="M624 461L625 462L624 461z"/>
<path style="fill:#c9d3cb; stroke:none;" d="M329 463L329 464L336 463L329 463z"/>
<path style="fill:#6bb5a7; stroke:none;" d="M345 462L346 463L345 462M472 462L473 463L472 462z"/>
<path style="fill:#c9d3cb; stroke:none;" d="M473 462L474 463L473 462z"/>
<path style="fill:#99c3b9; stroke:none;" d="M477 462L478 463L477 462z"/>
<path style="fill:#c9d3cb; stroke:none;" d="M609 463L609 464L616 463L609 463z"/>
<path style="fill:#6bb5a7; stroke:none;" d="M625 462L626 463L625 462z"/>
<path style="fill:#41a799; stroke:none;" d="M330 463L330 473C341.753 472.958 341.725 463.106 330 463z"/>
<path style="fill:#99c3b9; stroke:none;" d="M337 463L338 464L337 463z"/>
<path style="fill:#c9d3cb; stroke:none;" d="M345 463L346 464L345 463z"/>
<path style="fill:#6bb5a7; stroke:none;" d="M475 463L476 464L475 463z"/>
<path style="fill:#41a799; stroke:none;" d="M610 463L610 473C621.753 472.958 621.725 463.106 610 463z"/>
<path style="fill:#99c3b9; stroke:none;" d="M617 463L618 464L617 463z"/>
<path style="fill:#c9d3cb; stroke:none;" d="M625 463L626 464L625 463M329 465L330 466L329 465z"/>
<path style="fill:#99c3b9; stroke:none;" d="M339 465L340 466L339 465M346.333 465.667L346.667 466.333L346.333 465.667z"/>
<path style="fill:#6bb5a7; stroke:none;" d="M367 465L367 466L371 466L367 465M387 465L387 466L392 466L387 465M416 465L416 466L420 466L416 465M500 465L500 466L504 466L500 465M527 465L527 466L532 466L527 465z"/>
<path style="fill:#c9d3cb; stroke:none;" d="M609 465L610 466L609 465z"/>
<path style="fill:#99c3b9; stroke:none;" d="M619 465L620 466L619 465M626.333 465.667L626.667 466.333L626.333 465.667z"/>
<path style="fill:#6bb5a7; stroke:none;" d="M647 465L647 466L651 466L647 465M668 465L668 466L672 466L668 465M695 465L695 466L698 466L695 465M731 465L731 466L735 466L731 465M751 465L751 466L756 466L751 465M779 465L779 466L782 466L779 465M788.667 465.333L789.333 465.667L788.667 465.333M807 465L807 466L810 466L807 465M816.667 465.333L817.333 465.667L816.667 465.333M837 465L837 466L841 466L837 465M871 465L871 466L875 466L871 465M354 466L355 467L354 466z"/>
<path style="fill:#c9d3cb; stroke:none;" d="M355 466L355 467L360 470C360.777 466.546 357.94 466.227 355 466z"/>
<path style="fill:#99c3b9; stroke:none;" d="M360 466L361 467L360 466M365 466L366 467L365 466z"/>
<path style="fill:#f5e1db; stroke:none;" d="M360 470C359.346 466.946 357.993 467.064 355 467L355 491L361 491C361 479.99 359.683 472.038 373 472L373 466L360 470z"/>
<path style="fill:#99c3b9; stroke:none;" d="M373 466L373 469L374 469L373 466z"/>
<path style="fill:#6bb5a7; stroke:none;" d="M384 466L385 467L384 466z"/>
<path style="fill:#c9d3cb; stroke:none;" d="M385 466L386 467L385 466z"/>
<path style="fill:#f5e1db; stroke:none;" d="M380 473C386.021 472.567 391.671 467.979 394 476C390.355 476.03 386.276 475.935 383.059 477.938C377.944 481.123 378.277 487.995 384.019 490.257C387.727 491.717 391.497 490.277 395 489L401 491C399.512 484.751 402.054 475.471 398.258 470.133C393.43 463.345 382.207 465.371 380 473z"/>
<path style="fill:#c9d3cb; stroke:none;" d="M393 466L394 467L393 466z"/>
<path style="fill:#99c3b9; stroke:none;" d="M394 466L395 467L394 466M413 466L414 467L413 466z"/>
<path style="fill:#c9d3cb; stroke:none;" d="M414 466L415 467L414 466z"/>
<path style="fill:#f5e1db; stroke:none;" d="M428 483C424.251 483.284 419.619 487.251 416.147 485.149C411.982 482.628 411.689 473.111 417.105 471.751C420.429 470.916 424.429 474.722 428 475C426.058 460.604 406.969 465.798 407.083 479C407.191 491.388 425.284 496.144 428 483z"/>
<path style="fill:#c9d3cb; stroke:none;" d="M421 466L422 467L421 466z"/>
<path style="fill:#99c3b9; stroke:none;" d="M422 466L423 467L422 466z"/>
<path style="fill:#6bb5a7; stroke:none;" d="M423 466L424 467L423 466z"/>
<path style="fill:#c9d3cb; stroke:none;" d="M435 466L435 467L440 467L435 466M447 466L447 467L456 467L447 466z"/>
<path style="fill:#6bb5a7; stroke:none;" d="M456 466L456 471L457 471L456 466z"/>
<path style="fill:#c9d3cb; stroke:none;" d="M465 466L465 467L478 467L465 466z"/>
<path style="fill:#99c3b9; stroke:none;" d="M478 466L478 486L479 486L478 466M497 466L498 467L497 466z"/>
<path style="fill:#c9d3cb; stroke:none;" d="M498 466L499 467L498 466z"/>
<path style="fill:#f5e1db; stroke:none;" d="M512 483C508.251 483.284 503.619 487.251 500.147 485.149C495.982 482.628 495.689 473.111 501.105 471.751C504.429 470.916 508.429 474.722 512 475C510.058 460.604 490.969 465.798 491.083 479C491.191 491.388 509.284 496.144 512 483z"/>
<path style="fill:#c9d3cb; stroke:none;" d="M505 466L506 467L505 466z"/>
<path style="fill:#99c3b9; stroke:none;" d="M506 466L507 467L506 466z"/>
<path style="fill:#6bb5a7; stroke:none;" d="M507 466L508 467L507 466M524 466L525 467L524 466z"/>
<path style="fill:#c9d3cb; stroke:none;" d="M525 466L526 467L525 466z"/>
<path style="fill:#f5e1db; stroke:none;" d="M520 473C526.021 472.567 531.671 467.979 534 476C530.356 476.03 526.276 475.935 523.059 477.938C517.944 481.123 518.276 487.995 524.019 490.257C527.727 491.717 531.497 490.277 535 489L541 491C539.512 484.751 542.054 475.471 538.258 470.133C533.43 463.345 522.207 465.371 520 473z"/>
<path style="fill:#c9d3cb; stroke:none;" d="M533 466L534 467L533 466z"/>
<path style="fill:#99c3b9; stroke:none;" d="M534 466L535 467L534 466z"/>
<path style="fill:#6bb5a7; stroke:none;" d="M634 466L635 467L634 466z"/>
<path style="fill:#c9d3cb; stroke:none;" d="M635 466L635 467L640 470C640.777 466.546 637.94 466.227 635 466z"/>
<path style="fill:#99c3b9; stroke:none;" d="M640 466L641 467L640 466M645 466L646 467L645 466z"/>
<path style="fill:#f5e1db; stroke:none;" d="M640 470C639.346 466.946 637.993 467.064 635 467L635 491L641 491C641 479.99 639.683 472.038 653 472L653 466L640 470z"/>
<path style="fill:#99c3b9; stroke:none;" d="M653 466L653 469L654 469L653 466M665 466L666 467L665 466z"/>
<path style="fill:#c9d3cb; stroke:none;" d="M666 466L667 467L666 466z"/>
<path style="fill:#f5e1db; stroke:none;" d="M667.001 466.576C652.653 470.536 658.747 495.245 673.985 490.347C686.918 486.19 681.309 462.628 667.001 466.576z"/>
<path style="fill:#c9d3cb; stroke:none;" d="M673 466L674 467L673 466z"/>
<path style="fill:#99c3b9; stroke:none;" d="M674 466L675 467L674 466z"/>
<path style="fill:#6bb5a7; stroke:none;" d="M692 466L693 467L692 466z"/>
<path style="fill:#c9d3cb; stroke:none;" d="M693 466L694 467L693 466z"/>
<path style="fill:#f5e1db; stroke:none;" d="M703 489C701.415 496.665 696.218 495.641 690 494L689 498C712.184 506.45 709 482.463 709 467C702.961 467.205 694.946 464.418 690.279 469.228C680.882 478.913 690.319 494.365 703 489z"/>
<path style="fill:#c9d3cb; stroke:none;" d="M699 466L700 467L699 466z"/>
<path style="fill:#99c3b9; stroke:none;" d="M700 466L701 467L700 466M703 466L704 467L703 466z"/>
<path style="fill:#c9d3cb; stroke:none;" d="M704 466L704 467L709 467L704 466z"/>
<path style="fill:#6bb5a7; stroke:none;" d="M718 466L719 467L718 466z"/>
<path style="fill:#c9d3cb; stroke:none;" d="M719 466L719 467L724 470C724.777 466.546 721.94 466.227 719 466z"/>
<path style="fill:#99c3b9; stroke:none;" d="M724 466L725 467L724 466M729 466L730 467L729 466z"/>
<path style="fill:#f5e1db; stroke:none;" d="M724 470C723.346 466.946 721.993 467.064 719 467L719 491L725 491C725 479.99 723.683 472.038 737 472L737 466L724 470z"/>
<path style="fill:#99c3b9; stroke:none;" d="M737 466L737 469L738 469L737 466z"/>
<path style="fill:#6bb5a7; stroke:none;" d="M748 466L749 467L748 466z"/>
<path style="fill:#c9d3cb; stroke:none;" d="M749 466L750 467L749 466z"/>
<path style="fill:#f5e1db; stroke:none;" d="M744 473C750.021 472.567 755.671 467.979 758 476C754.356 476.03 750.276 475.935 747.059 477.938C741.944 481.123 742.276 487.995 748.019 490.257C751.727 491.717 755.497 490.277 759 489L765 491C763.512 484.751 766.054 475.471 762.258 470.133C757.43 463.345 746.207 465.371 744 473z"/>
<path style="fill:#c9d3cb; stroke:none;" d="M757 466L758 467L757 466z"/>
<path style="fill:#99c3b9; stroke:none;" d="M758 466L759 467L758 466z"/>
<path style="fill:#6bb5a7; stroke:none;" d="M769 466L769 491L770 491L769 466z"/>
<path style="fill:#c9d3cb; stroke:none;" d="M770 466L770 467L775 467L770 466z"/>
<path style="fill:#6bb5a7; stroke:none;" d="M775.333 466.667L775.667 467.333L775.333 466.667z"/>
<path style="fill:#99c3b9; stroke:none;" d="M777 466L775 469L777 466z"/>
<path style="fill:#f5e1db; stroke:none;" d="M776 469L770 467L770 491L775 491C775 484.724 772.728 474.459 779 471L780 491L784 491C784 487.838 782.172 473.515 786.17 472.631C790.423 471.691 789 488.435 789 491L794 491C794 480.371 797.634 466.858 784 466.701C780.339 466.659 778.673 466.31 776 469z"/>
<path style="fill:#c9d3cb; stroke:none;" d="M782 466L784 468L782 466z"/>
<path style="fill:#6bb5a7; stroke:none;" d="M783 466L784 467L783 466M785 466L786 467L785 466z"/>
<path style="fill:#c9d3cb; stroke:none;" d="M786 466L787 467L786 466z"/>
<path style="fill:#99c3b9; stroke:none;" d="M791 466L792 467L791 466z"/>
<path style="fill:#6bb5a7; stroke:none;" d="M797 466L797 491L798 491L797 466z"/>
<path style="fill:#c9d3cb; stroke:none;" d="M798 466L798 467L803 467L798 466z"/>
<path style="fill:#6bb5a7; stroke:none;" d="M803.333 466.667L803.667 467.333L803.333 466.667z"/>
<path style="fill:#99c3b9; stroke:none;" d="M805 466L803 469L805 466z"/>
<path style="fill:#f5e1db; stroke:none;" d="M804 469L798 467L798 491L803 491C803 484.724 800.728 474.459 807 471L808 491L812 491C812 487.838 810.172 473.515 814.17 472.631C818.423 471.691 817 488.436 817 491L822 491C822 480.371 825.634 466.858 812 466.701C808.339 466.659 806.673 466.31 804 469z"/>
<path style="fill:#c9d3cb; stroke:none;" d="M810 466L812 468L810 466z"/>
<path style="fill:#6bb5a7; stroke:none;" d="M811 466L812 467L811 466M813 466L814 467L813 466z"/>
<path style="fill:#c9d3cb; stroke:none;" d="M814 466L815 467L814 466z"/>
<path style="fill:#99c3b9; stroke:none;" d="M819 466L820 467L819 466z"/>
<path style="fill:#6bb5a7; stroke:none;" d="M833 466L834 467L833 466z"/>
<path style="fill:#99c3b9; stroke:none;" d="M834 466L835 467L834 466z"/>
<path style="fill:#c9d3cb; stroke:none;" d="M835 466L836 467L835 466z"/>
<path style="fill:#f5e1db; stroke:none;" d="M849 488L847 484C840.844 486.49 835.623 487.314 833 480L850 479C849.354 476.41 849.051 473.438 847.686 471.105C837.819 454.247 815.072 482.094 834.015 489.991C836.195 490.899 838.671 491.083 841 490.808C843.88 490.467 846.408 489.21 849 488z"/>
<path style="fill:#c9d3cb; stroke:none;" d="M842 466L843 467L842 466z"/>
<path style="fill:#6bb5a7; stroke:none;" d="M843 466L844 467L843 466M858 466L859 467L858 466z"/>
<path style="fill:#c9d3cb; stroke:none;" d="M859 466L859 467L864 470C864.777 466.546 861.94 466.227 859 466z"/>
<path style="fill:#99c3b9; stroke:none;" d="M864 466L865 467L864 466M869 466L870 467L869 466z"/>
<path style="fill:#f5e1db; stroke:none;" d="M864 470C863.346 466.946 861.993 467.064 859 467L859 491L865 491C865 479.99 863.683 472.038 877 472L877 466L864 470z"/>
<path style="fill:#99c3b9; stroke:none;" d="M877 466L877 469L878 469L877 466z"/>
<path style="fill:#c9d3cb; stroke:none;" d="M329 467L330 468L329 467M340 467L340 470L341 470L340 467M346 467L346 470L347 470L346 467z"/>
<path style="fill:#99c3b9; stroke:none;" d="M354 467L354 474L355 474L354 467M363 467L364 468L363 467z"/>
<path style="fill:#6bb5a7; stroke:none;" d="M382 467L383 468L382 467z"/>
<path style="fill:#99c3b9; stroke:none;" d="M396 467L397 468L396 467z"/>
<path style="fill:#6bb5a7; stroke:none;" d="M411 467L412 468L411 467z"/>
<path style="fill:#c9d3cb; stroke:none;" d="M412 467L413 468L412 467M424 467L425 468L424 467z"/>
<path style="fill:#6bb5a7; stroke:none;" d="M434 467L435 468L434 467z"/>
<path style="fill:#f5e1db; stroke:none;" d="M465 467L465 471L472 471L472 486L465 486L465 491L485 491L485 486L478 486L478 467L465 467z"/>
<path style="fill:#6bb5a7; stroke:none;" d="M495 467L496 468L495 467z"/>
<path style="fill:#c9d3cb; stroke:none;" d="M496 467L497 468L496 467M508 467L509 468L508 467z"/>
<path style="fill:#6bb5a7; stroke:none;" d="M522 467L523 468L522 467z"/>
<path style="fill:#99c3b9; stroke:none;" d="M536 467L537 468L536 467z"/>
<path style="fill:#c9d3cb; stroke:none;" d="M609 467L610 468L609 467M620 467L620 470L621 470L620 467M626 467L626 470L627 470L626 467z"/>
<path style="fill:#99c3b9; stroke:none;" d="M634 467L634 474L635 474L634 467M643 467L644 468L643 467M663 467L664 468L663 467M676 467L677 468L676 467z"/>
<path style="fill:#6bb5a7; stroke:none;" d="M690 467L691 468L690 467z"/>
<path style="fill:#c9d3cb; stroke:none;" d="M691 467L692 468L691 467M701 467L702 468L701 467z"/>
<path style="fill:#6bb5a7; stroke:none;" d="M702 467L703 468L702 467z"/>
<path style="fill:#c9d3cb; stroke:none;" d="M703 467L704 468L703 467z"/>
<path style="fill:#6bb5a7; stroke:none;" d="M709 467L710 468L709 467z"/>
<path style="fill:#99c3b9; stroke:none;" d="M718 467L718 474L719 474L718 467M727 467L728 468L727 467z"/>
<path style="fill:#6bb5a7; stroke:none;" d="M746 467L747 468L746 467z"/>
<path style="fill:#99c3b9; stroke:none;" d="M760 467L761 468L760 467z"/>
<path style="fill:#6bb5a7; stroke:none;" d="M784 467L785 468L784 467z"/>
<path style="fill:#c9d3cb; stroke:none;" d="M792 467L793 468L792 467z"/>
<path style="fill:#6bb5a7; stroke:none;" d="M812 467L813 468L812 467z"/>
<path style="fill:#c9d3cb; stroke:none;" d="M820 467L821 468L820 467M832 467L833 468L832 467M844 467L845 468L844 467z"/>
<path style="fill:#6bb5a7; stroke:none;" d="M845 467L846 468L845 467z"/>
<path style="fill:#99c3b9; stroke:none;" d="M858 467L858 472L859 472L858 467M867 467L868 468L867 467M362 468L363 469L362 468M381 468L382 469L381 468z"/>
<path style="fill:#c9d3cb; stroke:none;" d="M397 468L398 469L397 468z"/>
<path style="fill:#99c3b9; stroke:none;" d="M410 468L411 469L410 468z"/>
<path style="fill:#6bb5a7; stroke:none;" d="M426 468L427 469L426 468z"/>
<path style="fill:#99c3b9; stroke:none;" d="M494 468L495 469L494 468z"/>
<path style="fill:#6bb5a7; stroke:none;" d="M510 468L511 469L510 468z"/>
<path style="fill:#99c3b9; stroke:none;" d="M521 468L522 469L521 468z"/>
<path style="fill:#c9d3cb; stroke:none;" d="M537 468L538 469L537 468z"/>
<path style="fill:#99c3b9; stroke:none;" d="M642 468L643 469L642 468M662 468L663 469L662 468z"/>
<path style="fill:#c9d3cb; stroke:none;" d="M677 468L678 469L677 468M690 468L691 469L690 468z"/>
<path style="fill:#99c3b9; stroke:none;" d="M726 468L727 469L726 468M745 468L746 469L745 468z"/>
<path style="fill:#c9d3cb; stroke:none;" d="M761 468L762 469L761 468z"/>
<path style="fill:#6bb5a7; stroke:none;" d="M793 468L794 469L793 468M821 468L822 469L821 468M830 468L831 469L830 468M846 468L847 469L846 468z"/>
<path style="fill:#99c3b9; stroke:none;" d="M866 468L867 469L866 468z"/>
<path style="fill:#c9d3cb; stroke:none;" d="M329 469L330 470L329 469z"/>
<path style="fill:#99c3b9; stroke:none;" d="M361 469L362 470L361 469z"/>
<path style="fill:#6bb5a7; stroke:none;" d="M373 469L374 470L373 469z"/>
<path style="fill:#99c3b9; stroke:none;" d="M380 469L381 470L380 469z"/>
<path style="fill:#c9d3cb; stroke:none;" d="M398 469L399 470L398 469z"/>
<path style="fill:#99c3b9; stroke:none;" d="M409 469L410 470L409 469z"/>
<path style="fill:#c9d3cb; stroke:none;" d="M426 469L427 470L426 469z"/>
<path style="fill:#6bb5a7; stroke:none;" d="M434 469L435 470L434 469z"/>
<path style="fill:#99c3b9; stroke:none;" d="M493 469L494 470L493 469z"/>
<path style="fill:#c9d3cb; stroke:none;" d="M510 469L511 470L510 469z"/>
<path style="fill:#99c3b9; stroke:none;" d="M520 469L521 470L520 469z"/>
<path style="fill:#c9d3cb; stroke:none;" d="M538 469L539 470L538 469M609 469L610 470L609 469z"/>
<path style="fill:#99c3b9; stroke:none;" d="M641 469L642 470L641 469z"/>
<path style="fill:#6bb5a7; stroke:none;" d="M653 469L654 470L653 469z"/>
<path style="fill:#c9d3cb; stroke:none;" d="M661 469L662 470L661 469M678 469L679 470L678 469M689 469L690 470L689 469z"/>
<path style="fill:#6bb5a7; stroke:none;" d="M709 469L710 470L709 469z"/>
<path style="fill:#99c3b9; stroke:none;" d="M725 469L726 470L725 469z"/>
<path style="fill:#6bb5a7; stroke:none;" d="M737 469L738 470L737 469z"/>
<path style="fill:#99c3b9; stroke:none;" d="M744 469L745 470L744 469z"/>
<path style="fill:#c9d3cb; stroke:none;" d="M762 469L763 470L762 469M793 469L794 470L793 469M821 469L822 470L821 469z"/>
<path style="fill:#6bb5a7; stroke:none;" d="M829 469L830 470L829 469M847 469L848 470L847 469z"/>
<path style="fill:#99c3b9; stroke:none;" d="M865 469L866 470L865 469z"/>
<path style="fill:#6bb5a7; stroke:none;" d="M877 469L878 470L877 469M339 470L340 471L339 470z"/>
<path style="fill:#99c3b9; stroke:none;" d="M346 470L347 471L346 470z"/>
<path style="fill:#c9d3cb; stroke:none;" d="M387 470L388 471L387 470z"/>
<path style="fill:#99c3b9; stroke:none;" d="M388 470L388 471L391 471L388 470z"/>
<path style="fill:#c9d3cb; stroke:none;" d="M391 470L392 471L391 470z"/>
<path style="fill:#6bb5a7; stroke:none;" d="M399 470L400 471L399 470M408 470L409 471L408 470z"/>
<path style="fill:#c9d3cb; stroke:none;" d="M427 470L428 471L427 470M435 470L436 471L435 470M437 470L438 471L437 470M439 470L440 471L439 470M447 470L448 471L447 470M449 470L450 471L449 470M451 470L452 471L451 470M453 470L454 471L453 470M455 470L456 471L455 470z"/>
<path style="fill:#6bb5a7; stroke:none;" d="M492 470L493 471L492 470z"/>
<path style="fill:#c9d3cb; stroke:none;" d="M511 470L512 471L511 470M527 470L528 471L527 470z"/>
<path style="fill:#99c3b9; stroke:none;" d="M528 470L528 471L531 471L528 470z"/>
<path style="fill:#c9d3cb; stroke:none;" d="M531 470L532 471L531 470z"/>
<path style="fill:#6bb5a7; stroke:none;" d="M539 470L540 471L539 470M619 470L620 471L619 470z"/>
<path style="fill:#99c3b9; stroke:none;" d="M626 470L627 471L626 470M660 470L661 471L660 470M679 470L680 471L679 470M688 470L689 471L688 470z"/>
<path style="fill:#c9d3cb; stroke:none;" d="M751 470L752 471L751 470z"/>
<path style="fill:#99c3b9; stroke:none;" d="M752 470L752 471L755 471L752 470z"/>
<path style="fill:#c9d3cb; stroke:none;" d="M755 470L756 471L755 470z"/>
<path style="fill:#6bb5a7; stroke:none;" d="M763 470L764 471L763 470z"/>
<path style="fill:#c9d3cb; stroke:none;" d="M847 470L848 471L847 470M329 471L330 472L329 471M339 471L340 472L339 471z"/>
<path style="fill:#6bb5a7; stroke:none;" d="M346 471L347 472L346 471z"/>
<path style="fill:#99c3b9; stroke:none;" d="M379 471L380 472L379 471M386 471L387 472L386 471M392 471L393 472L392 471z"/>
<path style="fill:#c9d3cb; stroke:none;" d="M399 471L400 472L399 471M408 471L409 472L408 471M415 471L416 472L415 471z"/>
<path style="fill:#6bb5a7; stroke:none;" d="M416 471L417 472L416 471z"/>
<path style="fill:#99c3b9; stroke:none;" d="M420 471L421 472L420 471z"/>
<path style="fill:#6bb5a7; stroke:none;" d="M428 471L429 472L428 471z"/>
<path style="fill:#99c3b9; stroke:none;" d="M440 471L440 483L441 483L440 471M465 471L466 472L465 471z"/>
<path style="fill:#6bb5a7; stroke:none;" d="M466 471L467 472L466 471z"/>
<path style="fill:#99c3b9; stroke:none;" d="M467 471L468 472L467 471z"/>
<path style="fill:#6bb5a7; stroke:none;" d="M468 471L469 472L468 471z"/>
<path style="fill:#99c3b9; stroke:none;" d="M469 471L470 472L469 471z"/>
<path style="fill:#6bb5a7; stroke:none;" d="M470 471L471 472L470 471z"/>
<path style="fill:#99c3b9; stroke:none;" d="M471 471L472 472L471 471z"/>
<path style="fill:#c9d3cb; stroke:none;" d="M492 471L493 472L492 471M499 471L500 472L499 471z"/>
<path style="fill:#6bb5a7; stroke:none;" d="M500 471L501 472L500 471z"/>
<path style="fill:#99c3b9; stroke:none;" d="M504 471L505 472L504 471z"/>
<path style="fill:#6bb5a7; stroke:none;" d="M512 471L513 472L512 471z"/>
<path style="fill:#99c3b9; stroke:none;" d="M519 471L520 472L519 471M526 471L527 472L526 471M532 471L533 472L532 471z"/>
<path style="fill:#c9d3cb; stroke:none;" d="M539 471L540 472L539 471M609 471L610 472L609 471M619 471L620 472L619 471z"/>
<path style="fill:#6bb5a7; stroke:none;" d="M626 471L627 472L626 471z"/>
<path style="fill:#99c3b9; stroke:none;" d="M667 471L666 473L667 471z"/>
<path style="fill:#6bb5a7; stroke:none;" d="M668 471L669 472L668 471z"/>
<path style="fill:#41a799; stroke:none;" d="M669.093 471.89C662.98 473.506 664.216 486.913 670.907 485.248C677.013 483.729 675.853 470.104 669.093 471.89z"/>
<path style="fill:#99c3b9; stroke:none;" d="M672 471L673 472L672 471z"/>
<path style="fill:#6bb5a7; stroke:none;" d="M680 471L681 472L680 471z"/>
<path style="fill:#c9d3cb; stroke:none;" d="M695 471L694 473L695 471z"/>
<path style="fill:#6bb5a7; stroke:none;" d="M696 471L697 472L696 471z"/>
<path style="fill:#41a799; stroke:none;" d="M697.125 471.851C690.975 473.895 692.865 487.947 699.687 485.199C703.825 483.532 703.416 469.76 697.125 471.851z"/>
<path style="fill:#6bb5a7; stroke:none;" d="M700 471L701 472L700 471z"/>
<path style="fill:#c9d3cb; stroke:none;" d="M701 471L702 472L701 471z"/>
<path style="fill:#6bb5a7; stroke:none;" d="M709 471L710 472L709 471z"/>
<path style="fill:#99c3b9; stroke:none;" d="M743 471L744 472L743 471M750 471L751 472L750 471M756 471L757 472L756 471z"/>
<path style="fill:#c9d3cb; stroke:none;" d="M763 471L764 472L763 471z"/>
<path style="fill:#6bb5a7; stroke:none;" d="M776 471L777 472L776 471M778 471L779 472L778 471M785 471L786 472L785 471M787 471L788 472L787 471M794 471L794 491L795 491L794 471M804 471L805 472L804 471M806 471L807 472L806 471M813 471L814 472L813 471M815 471L816 472L815 471M822 471L822 491L823 491L822 471z"/>
<path style="fill:#c9d3cb; stroke:none;" d="M828 471L829 472L828 471M835 471L834 473L835 471z"/>
<path style="fill:#6bb5a7; stroke:none;" d="M836 471L837 472L836 471z"/>
<path style="fill:#41a799; stroke:none;" d="M834 476L843 476C841.203 470.316 836.036 470.681 834 476z"/>
<path style="fill:#6bb5a7; stroke:none;" d="M840 471L841 472L840 471z"/>
<path style="fill:#c9d3cb; stroke:none;" d="M841 471L842 472L841 471z"/>
<path style="fill:#99c3b9; stroke:none;" d="M848 471L849 472L848 471z"/>
<path style="fill:#c9d3cb; stroke:none;" d="M338 472L339 473L338 472M345 472L346 473L345 472M364 472L365 473L364 472z"/>
<path style="fill:#6bb5a7; stroke:none;" d="M365.667 472.333L366.333 472.667L365.667 472.333M368 472L368 473L371 473L368 472z"/>
<path style="fill:#99c3b9; stroke:none;" d="M371.667 472.333L372.333 472.667L371.667 472.333z"/>
<path style="fill:#c9d3cb; stroke:none;" d="M379 472L380 473L379 472M385 472L386 473L385 472z"/>
<path style="fill:#99c3b9; stroke:none;" d="M393 472L394 473L393 472z"/>
<path style="fill:#6bb5a7; stroke:none;" d="M407 472L408 473L407 472z"/>
<path style="fill:#99c3b9; stroke:none;" d="M414 472L415 473L414 472z"/>
<path style="fill:#6bb5a7; stroke:none;" d="M421 472L422 473L421 472z"/>
<path style="fill:#99c3b9; stroke:none;" d="M428 472L429 473L428 472z"/>
<path style="fill:#6bb5a7; stroke:none;" d="M491 472L492 473L491 472z"/>
<path style="fill:#99c3b9; stroke:none;" d="M498 472L499 473L498 472z"/>
<path style="fill:#6bb5a7; stroke:none;" d="M505 472L506 473L505 472z"/>
<path style="fill:#99c3b9; stroke:none;" d="M512 472L513 473L512 472z"/>
<path style="fill:#c9d3cb; stroke:none;" d="M519 472L520 473L519 472M525 472L526 473L525 472z"/>
<path style="fill:#99c3b9; stroke:none;" d="M533 472L534 473L533 472z"/>
<path style="fill:#c9d3cb; stroke:none;" d="M618 472L619 473L618 472M625 472L626 473L625 472M644 472L645 473L644 472z"/>
<path style="fill:#6bb5a7; stroke:none;" d="M645.667 472.333L646.333 472.667L645.667 472.333M648 472L648 473L651 473L648 472z"/>
<path style="fill:#99c3b9; stroke:none;" d="M651.667 472.333L652.333 472.667L651.667 472.333M659 472L660 473L659 472z"/>
<path style="fill:#6bb5a7; stroke:none;" d="M673 472L674 473L673 472z"/>
<path style="fill:#c9d3cb; stroke:none;" d="M680 472L681 473L680 472z"/>
<path style="fill:#99c3b9; stroke:none;" d="M687 472L688 473L687 472z"/>
<path style="fill:#c9d3cb; stroke:none;" d="M702 472L703 473L702 472M728 472L729 473L728 472z"/>
<path style="fill:#6bb5a7; stroke:none;" d="M729.667 472.333L730.333 472.667L729.667 472.333M732 472L732 473L735 473L732 472z"/>
<path style="fill:#99c3b9; stroke:none;" d="M735.667 472.333L736.333 472.667L735.667 472.333z"/>
<path style="fill:#c9d3cb; stroke:none;" d="M743 472L744 473L743 472M749 472L750 473L749 472z"/>
<path style="fill:#99c3b9; stroke:none;" d="M757 472L758 473L757 472M775 472L775 491L776 491L775 472z"/>
<path style="fill:#c9d3cb; stroke:none;" d="M784 472L784 491L785 491L784 472z"/>
<path style="fill:#99c3b9; stroke:none;" d="M788 472L788 491L789 491L788 472M803 472L803 491L804 491L803 472z"/>
<path style="fill:#c9d3cb; stroke:none;" d="M812 472L812 491L813 491L812 472z"/>
<path style="fill:#99c3b9; stroke:none;" d="M816 472L816 491L817 491L816 472z"/>
<path style="fill:#6bb5a7; stroke:none;" d="M827 472L828 473L827 472z"/>
<path style="fill:#99c3b9; stroke:none;" d="M842 472L843 473L842 472z"/>
<path style="fill:#6bb5a7; stroke:none;" d="M858 472L859 473L858 472z"/>
<path style="fill:#c9d3cb; stroke:none;" d="M868 472L869 473L868 472z"/>
<path style="fill:#6bb5a7; stroke:none;" d="M869.667 472.333L870.333 472.667L869.667 472.333M872 472L872 473L875 473L872 472z"/>
<path style="fill:#99c3b9; stroke:none;" d="M875.667 472.333L876.333 472.667L875.667 472.333M330 473L330 474L336 474L330 473z"/>
<path style="fill:#c9d3cb; stroke:none;" d="M336 473L337 474L336 473z"/>
<path style="fill:#99c3b9; stroke:none;" d="M345 473L346 474L345 473z"/>
<path style="fill:#c9d3cb; stroke:none;" d="M362 473L363 474L362 473z"/>
<path style="fill:#6bb5a7; stroke:none;" d="M363 473L364 474L363 473z"/>
<path style="fill:#99c3b9; stroke:none;" d="M379 473L379 474L385 474L379 473z"/>
<path style="fill:#6bb5a7; stroke:none;" d="M385 473L386 474L385 473M393 473L390 475L390 476C392.348 475.706 393.951 475.507 393 473M400 473L400 487L401 487L400 473z"/>
<path style="fill:#99c3b9; stroke:none;" d="M407 473L408 474L407 473M422 473L423 474L422 473z"/>
<path style="fill:#c9d3cb; stroke:none;" d="M428.333 473.667L428.667 474.333L428.333 473.667z"/>
<path style="fill:#99c3b9; stroke:none;" d="M491 473L492 474L491 473M506 473L507 474L506 473z"/>
<path style="fill:#c9d3cb; stroke:none;" d="M512.333 473.667L512.667 474.333L512.333 473.667z"/>
<path style="fill:#99c3b9; stroke:none;" d="M519 473L519 474L525 474L519 473z"/>
<path style="fill:#6bb5a7; stroke:none;" d="M525 473L526 474L525 473M533 473L530 475L530 476C532.348 475.706 533.951 475.507 533 473M540 473L540 487L541 487L540 473z"/>
<path style="fill:#99c3b9; stroke:none;" d="M610 473L610 474L616 474L610 473z"/>
<path style="fill:#c9d3cb; stroke:none;" d="M616 473L617 474L616 473z"/>
<path style="fill:#99c3b9; stroke:none;" d="M625 473L626 474L625 473z"/>
<path style="fill:#c9d3cb; stroke:none;" d="M642 473L643 474L642 473z"/>
<path style="fill:#6bb5a7; stroke:none;" d="M643 473L644 474L643 473z"/>
<path style="fill:#c9d3cb; stroke:none;" d="M665 473L666 474L665 473M674 473L675 474L674 473M687 473L688 474L687 473z"/>
<path style="fill:#6bb5a7; stroke:none;" d="M702 473L702 484L703 484L702 473M709 473L710 474L709 473z"/>
<path style="fill:#c9d3cb; stroke:none;" d="M726 473L727 474L726 473z"/>
<path style="fill:#6bb5a7; stroke:none;" d="M727 473L728 474L727 473z"/>
<path style="fill:#99c3b9; stroke:none;" d="M743 473L743 474L749 474L743 473z"/>
<path style="fill:#6bb5a7; stroke:none;" d="M749 473L750 474L749 473M757 473L754 475L754 476C756.348 475.706 757.951 475.507 757 473M764 473L764 487L765 487L764 473z"/>
<path style="fill:#c9d3cb; stroke:none;" d="M779 473L779 491L780 491L779 473M807 473L807 491L808 491L807 473z"/>
<path style="fill:#99c3b9; stroke:none;" d="M827 473L828 474L827 473z"/>
<path style="fill:#6bb5a7; stroke:none;" d="M834 473L835 474L834 473M849 473L850 474L849 473z"/>
<path style="fill:#99c3b9; stroke:none;" d="M858 473L858 480L859 480L858 473z"/>
<path style="fill:#c9d3cb; stroke:none;" d="M866 473L867 474L866 473z"/>
<path style="fill:#6bb5a7; stroke:none;" d="M867 473L868 474L867 473z"/>
<path style="fill:#c9d3cb; stroke:none;" d="M344 474L345 475L344 474z"/>
<path style="fill:#6bb5a7; stroke:none;" d="M354 474L355 475L354 474z"/>
<path style="fill:#c9d3cb; stroke:none;" d="M361 474L362 475L361 474M407 474L408 475L407 474z"/>
<path style="fill:#99c3b9; stroke:none;" d="M413 474L414 475L413 474z"/>
<path style="fill:#6bb5a7; stroke:none;" d="M422 474L423 475L422 474z"/>
<path style="fill:#c9d3cb; stroke:none;" d="M491 474L492 475L491 474z"/>
<path style="fill:#99c3b9; stroke:none;" d="M497 474L498 475L497 474z"/>
<path style="fill:#6bb5a7; stroke:none;" d="M506 474L507 475L506 474z"/>
<path style="fill:#c9d3cb; stroke:none;" d="M624 474L625 475L624 474z"/>
<path style="fill:#6bb5a7; stroke:none;" d="M634 474L635 475L634 474z"/>
<path style="fill:#c9d3cb; stroke:none;" d="M641 474L642 475L641 474z"/>
<path style="fill:#6bb5a7; stroke:none;" d="M658.333 474.667L658.667 475.333L658.333 474.667M665 474L666 475L665 474M674 474L675 475L674 474M681 474L682 475L681 474z"/>
<path style="fill:#c9d3cb; stroke:none;" d="M693 474L694 475L693 474z"/>
<path style="fill:#6bb5a7; stroke:none;" d="M718 474L719 475L718 474z"/>
<path style="fill:#c9d3cb; stroke:none;" d="M725 474L726 475L725 474M827 474L828 475L827 474M833 474L834 475L833 474z"/>
<path style="fill:#99c3b9; stroke:none;" d="M843.333 474.667L843.667 475.333L843.333 474.667M849 474L850 475L849 474z"/>
<path style="fill:#c9d3cb; stroke:none;" d="M865 474L866 475L865 474M343 475L344 476L343 475z"/>
<path style="fill:#99c3b9; stroke:none;" d="M354 475L354 480L355 480L354 475z"/>
<path style="fill:#6bb5a7; stroke:none;" d="M361 475L362 476L361 475M413 475L413 478L414 478L413 475z"/>
<path style="fill:#99c3b9; stroke:none;" d="M423 475L424 476L423 475z"/>
<path style="fill:#6bb5a7; stroke:none;" d="M424.667 475.333L425.333 475.667L424.667 475.333z"/>
<path style="fill:#99c3b9; stroke:none;" d="M426 475L427 476L426 475z"/>
<path style="fill:#6bb5a7; stroke:none;" d="M427.667 475.333L428.333 475.667L427.667 475.333M497 475L497 478L498 478L497 475z"/>
<path style="fill:#99c3b9; stroke:none;" d="M507 475L508 476L507 475z"/>
<path style="fill:#6bb5a7; stroke:none;" d="M508.667 475.333L509.333 475.667L508.667 475.333z"/>
<path style="fill:#99c3b9; stroke:none;" d="M510 475L511 476L510 475z"/>
<path style="fill:#6bb5a7; stroke:none;" d="M511.667 475.333L512.333 475.667L511.667 475.333z"/>
<path style="fill:#c9d3cb; stroke:none;" d="M623 475L624 476L623 475z"/>
<path style="fill:#99c3b9; stroke:none;" d="M634 475L634 480L635 480L634 475z"/>
<path style="fill:#6bb5a7; stroke:none;" d="M641 475L642 476L641 475z"/>
<path style="fill:#99c3b9; stroke:none;" d="M681 475L682 476L681 475z"/>
<path style="fill:#6bb5a7; stroke:none;" d="M686 475L686 478L687 478L686 475M693.333 475.667L693.667 476.333L693.333 475.667M709 475L710 476L709 475z"/>
<path style="fill:#99c3b9; stroke:none;" d="M718 475L718 482L719 482L718 475z"/>
<path style="fill:#6bb5a7; stroke:none;" d="M725 475L726 476L725 475M826 475L826 478L827 478L826 475z"/>
<path style="fill:#99c3b9; stroke:none;" d="M833 475L834 476L833 475z"/>
<path style="fill:#c9d3cb; stroke:none;" d="M849 475L849 478L850 478L849 475z"/>
<path style="fill:#6bb5a7; stroke:none;" d="M865 475L866 476L865 475z"/>
<path style="fill:#99c3b9; stroke:none;" d="M342 476L343 477L342 476M384 476L385 477L384 476z"/>
<path style="fill:#c9d3cb; stroke:none;" d="M385.667 476.333L386.333 476.667L385.667 476.333z"/>
<path style="fill:#6bb5a7; stroke:none;" d="M406 476L406 481L407 481L406 476M490 476L490 481L491 481L490 476z"/>
<path style="fill:#99c3b9; stroke:none;" d="M524 476L525 477L524 476z"/>
<path style="fill:#c9d3cb; stroke:none;" d="M525.667 476.333L526.333 476.667L525.667 476.333z"/>
<path style="fill:#99c3b9; stroke:none;" d="M622 476L623 477L622 476M658.333 476.667L658.667 477.333L658.333 476.667z"/>
<path style="fill:#c9d3cb; stroke:none;" d="M675.333 476.667L675.667 477.333L675.333 476.667M681 476L681 481L682 481L681 476z"/>
<path style="fill:#99c3b9; stroke:none;" d="M748 476L749 477L748 476z"/>
<path style="fill:#c9d3cb; stroke:none;" d="M749.667 476.333L750.333 476.667L749.667 476.333M833 476L833 477L844 477L833 476M340 477L341 478L340 477z"/>
<path style="fill:#6bb5a7; stroke:none;" d="M341 477L342 478L341 477z"/>
<path style="fill:#99c3b9; stroke:none;" d="M382 477L383 478L382 477M522 477L523 478L522 477z"/>
<path style="fill:#c9d3cb; stroke:none;" d="M620 477L621 478L620 477z"/>
<path style="fill:#6bb5a7; stroke:none;" d="M621 477L622 478L621 477z"/>
<path style="fill:#c9d3cb; stroke:none;" d="M664 477L664 481L665 481L664 477z"/>
<path style="fill:#6bb5a7; stroke:none;" d="M709 477L710 478L709 477z"/>
<path style="fill:#99c3b9; stroke:none;" d="M746 477L747 478L746 477z"/>
<path style="fill:#c9d3cb; stroke:none;" d="M330 478L330 479L336 479L330 478z"/>
<path style="fill:#99c3b9; stroke:none;" d="M336.667 478.333L337.333 478.667L336.667 478.333z"/>
<path style="fill:#6bb5a7; stroke:none;" d="M338 478L339 479L338 478M380 478L381 479L380 478z"/>
<path style="fill:#c9d3cb; stroke:none;" d="M381 478L382 479L381 478z"/>
<path style="fill:#6bb5a7; stroke:none;" d="M520 478L521 479L520 478z"/>
<path style="fill:#c9d3cb; stroke:none;" d="M521 478L522 479L521 478M610 478L610 479L616 479L610 478z"/>
<path style="fill:#99c3b9; stroke:none;" d="M616.667 478.333L617.333 478.667L616.667 478.333z"/>
<path style="fill:#6bb5a7; stroke:none;" d="M618 478L619 479L618 478z"/>
<path style="fill:#c9d3cb; stroke:none;" d="M658 478L659 479L658 478z"/>
<path style="fill:#99c3b9; stroke:none;" d="M675 478L676 479L675 478M686 478L687 479L686 478z"/>
<path style="fill:#6bb5a7; stroke:none;" d="M744 478L745 479L744 478z"/>
<path style="fill:#c9d3cb; stroke:none;" d="M745 478L746 479L745 478z"/>
<path style="fill:#99c3b9; stroke:none;" d="M826.333 478.667L826.667 479.333L826.333 478.667z"/>
<path style="fill:#c9d3cb; stroke:none;" d="M329 479L330 480L329 479M380 479L381 480L380 479M388 479L388 480L392 480L388 479z"/>
<path style="fill:#99c3b9; stroke:none;" d="M392 479L393 480L392 479z"/>
<path style="fill:#c9d3cb; stroke:none;" d="M393 479L394 480L393 479M520 479L521 480L520 479M528 479L528 480L532 480L528 479z"/>
<path style="fill:#99c3b9; stroke:none;" d="M532 479L533 480L532 479z"/>
<path style="fill:#c9d3cb; stroke:none;" d="M533 479L534 480L533 479M609 479L610 480L609 479z"/>
<path style="fill:#99c3b9; stroke:none;" d="M658 479L658 482L659 482L658 479z"/>
<path style="fill:#c9d3cb; stroke:none;" d="M675 479L675 482L676 482L675 479z"/>
<path style="fill:#6bb5a7; stroke:none;" d="M686 479L686 482L687 482L686 479M709 479L710 480L709 479z"/>
<path style="fill:#c9d3cb; stroke:none;" d="M744 479L745 480L744 479M752 479L752 480L756 480L752 479z"/>
<path style="fill:#99c3b9; stroke:none;" d="M756 479L757 480L756 479z"/>
<path style="fill:#c9d3cb; stroke:none;" d="M757 479L758 480L757 479M849 479L848 481L849 479z"/>
<path style="fill:#6bb5a7; stroke:none;" d="M354 480L355 481L354 480z"/>
<path style="fill:#99c3b9; stroke:none;" d="M379 480L380 481L379 480z"/>
<path style="fill:#c9d3cb; stroke:none;" d="M386 480L387 481L386 480z"/>
<path style="fill:#6bb5a7; stroke:none;" d="M387 480L388 481L387 480z"/>
<path style="fill:#41a799; stroke:none;" d="M388.228 480.761C384.168 482.549 387.083 486.938 390.772 485.378C394.845 483.655 392.017 479.092 388.228 480.761z"/>
<path style="fill:#6bb5a7; stroke:none;" d="M393.333 480.667L393.667 481.333L393.333 480.667M413.333 480.667L413.667 481.333L413.333 480.667M497.333 480.667L497.667 481.333L497.333 480.667z"/>
<path style="fill:#99c3b9; stroke:none;" d="M519 480L520 481L519 480z"/>
<path style="fill:#c9d3cb; stroke:none;" d="M526 480L527 481L526 480z"/>
<path style="fill:#6bb5a7; stroke:none;" d="M527 480L528 481L527 480z"/>
<path style="fill:#41a799; stroke:none;" d="M528.228 480.761C524.169 482.549 527.083 486.938 530.772 485.378C534.845 483.655 532.017 479.092 528.228 480.761z"/>
<path style="fill:#6bb5a7; stroke:none;" d="M533.333 480.667L533.667 481.333L533.333 480.667M634 480L635 481L634 480z"/>
<path style="fill:#99c3b9; stroke:none;" d="M743 480L744 481L743 480z"/>
<path style="fill:#c9d3cb; stroke:none;" d="M750 480L751 481L750 480z"/>
<path style="fill:#6bb5a7; stroke:none;" d="M751 480L752 481L751 480z"/>
<path style="fill:#41a799; stroke:none;" d="M752.228 480.761C748.168 482.549 751.083 486.938 754.772 485.378C758.845 483.655 756.017 479.092 752.228 480.761z"/>
<path style="fill:#6bb5a7; stroke:none;" d="M757.333 480.667L757.667 481.333L757.333 480.667M826.333 480.667L826.667 481.333L826.333 480.667z"/>
<path style="fill:#c9d3cb; stroke:none;" d="M833.667 480.333L834.333 480.667L833.667 480.333z"/>
<path style="fill:#99c3b9; stroke:none;" d="M835 480L836 481L835 480z"/>
<path style="fill:#c9d3cb; stroke:none;" d="M836.667 480.333L837.333 480.667L836.667 480.333z"/>
<path style="fill:#99c3b9; stroke:none;" d="M838 480L839 481L838 480z"/>
<path style="fill:#c9d3cb; stroke:none;" d="M839.667 480.333L840.333 480.667L839.667 480.333z"/>
<path style="fill:#99c3b9; stroke:none;" d="M841 480L842 481L841 480z"/>
<path style="fill:#c9d3cb; stroke:none;" d="M842.667 480.333L843.333 480.667L842.667 480.333z"/>
<path style="fill:#99c3b9; stroke:none;" d="M844 480L845 481L844 480z"/>
<path style="fill:#c9d3cb; stroke:none;" d="M845.667 480.333L846.333 480.667L845.667 480.333z"/>
<path style="fill:#99c3b9; stroke:none;" d="M847 480L848 481L847 480M849 480L850 481L849 480z"/>
<path style="fill:#6bb5a7; stroke:none;" d="M858 480L859 481L858 480z"/>
<path style="fill:#c9d3cb; stroke:none;" d="M329 481L330 482L329 481z"/>
<path style="fill:#99c3b9; stroke:none;" d="M354 481L354 486L355 486L354 481M385 481L386 482L385 481M525 481L526 482L525 481z"/>
<path style="fill:#c9d3cb; stroke:none;" d="M609 481L610 482L609 481z"/>
<path style="fill:#99c3b9; stroke:none;" d="M634 481L634 486L635 486L634 481M681 481L682 482L681 481z"/>
<path style="fill:#6bb5a7; stroke:none;" d="M693 481L694 482L693 481M709 481L710 482L709 481z"/>
<path style="fill:#99c3b9; stroke:none;" d="M749 481L750 482L749 481z"/>
<path style="fill:#6bb5a7; stroke:none;" d="M833 481L834 482L833 481z"/>
<path style="fill:#99c3b9; stroke:none;" d="M858 481L858 486L859 486L858 481z"/>
<path style="fill:#6bb5a7; stroke:none;" d="M378 482L378 486L379 486L378 482M385 482L386 483L385 482z"/>
<path style="fill:#99c3b9; stroke:none;" d="M413 482L414 483L413 482M423 482L423 483L429 483L423 482M497 482L498 483L497 482M507 482L507 483L513 483L507 482z"/>
<path style="fill:#6bb5a7; stroke:none;" d="M518 482L518 486L519 486L518 482M525 482L526 483L525 482M658 482L659 483L658 482M665 482L666 483L665 482M674 482L675 483L674 482M681.333 482.667L681.667 483.333L681.333 482.667z"/>
<path style="fill:#99c3b9; stroke:none;" d="M693 482L694 483L693 482z"/>
<path style="fill:#6bb5a7; stroke:none;" d="M718 482L719 483L718 482M742 482L742 486L743 486L742 482M749 482L750 483L749 482z"/>
<path style="fill:#99c3b9; stroke:none;" d="M833 482L834 483L833 482z"/>
<path style="fill:#c9d3cb; stroke:none;" d="M329 483L330 484L329 483z"/>
<path style="fill:#6bb5a7; stroke:none;" d="M393 483L394 484L393 483z"/>
<path style="fill:#c9d3cb; stroke:none;" d="M407 483L408 484L407 483M413 483L414 484L413 483z"/>
<path style="fill:#6bb5a7; stroke:none;" d="M422 483L423 484L422 483z"/>
<path style="fill:#c9d3cb; stroke:none;" d="M428 483L429 484L428 483z"/>
<path style="fill:#6bb5a7; stroke:none;" d="M440.333 483.667L440.667 484.333L440.333 483.667M447 483L448 484L447 483z"/>
<path style="fill:#c9d3cb; stroke:none;" d="M491 483L492 484L491 483M497 483L498 484L497 483z"/>
<path style="fill:#6bb5a7; stroke:none;" d="M506 483L507 484L506 483z"/>
<path style="fill:#c9d3cb; stroke:none;" d="M512 483L513 484L512 483z"/>
<path style="fill:#6bb5a7; stroke:none;" d="M533 483L534 484L533 483z"/>
<path style="fill:#c9d3cb; stroke:none;" d="M609 483L610 484L609 483M665 483L666 484L665 483z"/>
<path style="fill:#99c3b9; stroke:none;" d="M674 483L675 484L674 483z"/>
<path style="fill:#c9d3cb; stroke:none;" d="M687 483L688 484L687 483z"/>
<path style="fill:#6bb5a7; stroke:none;" d="M709 483L710 484L709 483z"/>
<path style="fill:#99c3b9; stroke:none;" d="M718 483L718 490L719 490L718 483z"/>
<path style="fill:#6bb5a7; stroke:none;" d="M757 483L758 484L757 483z"/>
<path style="fill:#c9d3cb; stroke:none;" d="M827 483L828 484L827 483z"/>
<path style="fill:#6bb5a7; stroke:none;" d="M834 483L836 485L834 483M846 483L847 484L846 483M385 484L386 485L385 484z"/>
<path style="fill:#99c3b9; stroke:none;" d="M393 484L394 485L393 484z"/>
<path style="fill:#6bb5a7; stroke:none;" d="M407 484L408 485L407 484z"/>
<path style="fill:#99c3b9; stroke:none;" d="M414 484L415 485L414 484z"/>
<path style="fill:#c9d3cb; stroke:none;" d="M422 484L423 485L422 484z"/>
<path style="fill:#99c3b9; stroke:none;" d="M428 484L429 485L428 484M447 484L448 485L447 484z"/>
<path style="fill:#6bb5a7; stroke:none;" d="M491 484L492 485L491 484z"/>
<path style="fill:#99c3b9; stroke:none;" d="M498 484L499 485L498 484z"/>
<path style="fill:#c9d3cb; stroke:none;" d="M506 484L507 485L506 484z"/>
<path style="fill:#99c3b9; stroke:none;" d="M512 484L513 485L512 484z"/>
<path style="fill:#6bb5a7; stroke:none;" d="M525 484L526 485L525 484z"/>
<path style="fill:#99c3b9; stroke:none;" d="M533 484L534 485L533 484M659 484L660 485L659 484z"/>
<path style="fill:#6bb5a7; stroke:none;" d="M666 484L667 485L666 484M673 484L674 485L673 484z"/>
<path style="fill:#c9d3cb; stroke:none;" d="M680 484L681 485L680 484z"/>
<path style="fill:#99c3b9; stroke:none;" d="M687 484L688 485L687 484M694 484L695 485L694 484z"/>
<path style="fill:#c9d3cb; stroke:none;" d="M702 484L703 485L702 484z"/>
<path style="fill:#6bb5a7; stroke:none;" d="M749 484L750 485L749 484z"/>
<path style="fill:#99c3b9; stroke:none;" d="M757 484L758 485L757 484z"/>
<path style="fill:#6bb5a7; stroke:none;" d="M827 484L828 485L827 484z"/>
<path style="fill:#c9d3cb; stroke:none;" d="M834 484L835 485L834 484M845 484L846 485L845 484z"/>
<path style="fill:#6bb5a7; stroke:none;" d="M847 484L849 486L847 484z"/>
<path style="fill:#c9d3cb; stroke:none;" d="M329 485L330 486L329 485M385 485L386 486L385 485M392 485L393 486L392 485M408 485L409 486L408 485z"/>
<path style="fill:#99c3b9; stroke:none;" d="M415 485L416 486L415 485z"/>
<path style="fill:#6bb5a7; stroke:none;" d="M420 485L421 486L420 485z"/>
<path style="fill:#c9d3cb; stroke:none;" d="M421 485L422 486L421 485z"/>
<path style="fill:#6bb5a7; stroke:none;" d="M428 485L429 486L428 485z"/>
<path style="fill:#99c3b9; stroke:none;" d="M448 485L449 486L448 485z"/>
<path style="fill:#6bb5a7; stroke:none;" d="M455.667 485.333L456.333 485.667L455.667 485.333M465 485L465 486L472 486L465 485M479 485L479 486L485 486L479 485z"/>
<path style="fill:#c9d3cb; stroke:none;" d="M492 485L493 486L492 485z"/>
<path style="fill:#99c3b9; stroke:none;" d="M499 485L500 486L499 485z"/>
<path style="fill:#6bb5a7; stroke:none;" d="M504 485L505 486L504 485z"/>
<path style="fill:#c9d3cb; stroke:none;" d="M505 485L506 486L505 485z"/>
<path style="fill:#6bb5a7; stroke:none;" d="M512 485L513 486L512 485z"/>
<path style="fill:#c9d3cb; stroke:none;" d="M525 485L526 486L525 485M532 485L533 486L532 485z"/>
<path style="fill:#6bb5a7; stroke:none;" d="M549 485L549 486L556 486L549 485M563 485L563 486L569 486L563 485z"/>
<path style="fill:#c9d3cb; stroke:none;" d="M609 485L610 486L609 485z"/>
<path style="fill:#6bb5a7; stroke:none;" d="M659 485L660 486L659 485M667 485L668 486L667 485M672 485L673 486L672 485M680 485L681 486L680 485z"/>
<path style="fill:#99c3b9; stroke:none;" d="M695 485L696 486L695 485z"/>
<path style="fill:#6bb5a7; stroke:none;" d="M700 485L701 486L700 485z"/>
<path style="fill:#c9d3cb; stroke:none;" d="M701 485L702 486L701 485z"/>
<path style="fill:#6bb5a7; stroke:none;" d="M709 485L710 486L709 485z"/>
<path style="fill:#c9d3cb; stroke:none;" d="M749 485L750 486L749 485M756 485L757 486L756 485M828 485L829 486L828 485z"/>
<path style="fill:#99c3b9; stroke:none;" d="M836 485L837 486L836 485M843 485L844 486L843 485z"/>
<path style="fill:#c9d3cb; stroke:none;" d="M847 485L848 486L847 485z"/>
<path style="fill:#6bb5a7; stroke:none;" d="M354 486L355 487L354 486z"/>
<path style="fill:#99c3b9; stroke:none;" d="M387 486L387 487L390 487L387 486z"/>
<path style="fill:#c9d3cb; stroke:none;" d="M390 486L391 487L390 486z"/>
<path style="fill:#6bb5a7; stroke:none;" d="M408 486L409 487L408 486z"/>
<path style="fill:#c9d3cb; stroke:none;" d="M417 486L417 487L420 487L417 486M427 486L428 487L427 486M441 486L442 487L441 486M450 486L450 487L453 487L450 486M456 486L457 487L456 486z"/>
<path style="fill:#6bb5a7; stroke:none;" d="M485 486L485 491L486 491L485 486M492 486L493 487L492 486z"/>
<path style="fill:#c9d3cb; stroke:none;" d="M501 486L501 487L504 487L501 486M511 486L512 487L511 486z"/>
<path style="fill:#99c3b9; stroke:none;" d="M527 486L527 487L530 487L527 486z"/>
<path style="fill:#c9d3cb; stroke:none;" d="M530 486L531 487L530 486z"/>
<path style="fill:#99c3b9; stroke:none;" d="M548 486L548 491L549 491L548 486M569 486L569 491L570 491L569 486z"/>
<path style="fill:#6bb5a7; stroke:none;" d="M634 486L635 487L634 486z"/>
<path style="fill:#99c3b9; stroke:none;" d="M660 486L661 487L660 486z"/>
<path style="fill:#c9d3cb; stroke:none;" d="M669 486L669 487L672 487L669 486M679 486L680 487L679 486z"/>
<path style="fill:#99c3b9; stroke:none;" d="M688 486L689 487L688 486z"/>
<path style="fill:#c9d3cb; stroke:none;" d="M697 486L697 487L700 487L697 486z"/>
<path style="fill:#99c3b9; stroke:none;" d="M751 486L751 487L754 487L751 486z"/>
<path style="fill:#c9d3cb; stroke:none;" d="M754 486L755 487L754 486z"/>
<path style="fill:#6bb5a7; stroke:none;" d="M828 486L829 487L828 486z"/>
<path style="fill:#c9d3cb; stroke:none;" d="M838 486L838 487L842 487L838 486M848 486L849 487L848 486z"/>
<path style="fill:#6bb5a7; stroke:none;" d="M858 486L859 487L858 486z"/>
<path style="fill:#c9d3cb; stroke:none;" d="M329 487L330 488L329 487z"/>
<path style="fill:#99c3b9; stroke:none;" d="M354 487L354 491L355 491L354 487M379 487L380 488L379 487M400.333 487.667L400.667 488.333L400.333 487.667M409 487L410 488L409 487z"/>
<path style="fill:#6bb5a7; stroke:none;" d="M427 487L428 488L427 487M441 487L442 488L441 487z"/>
<path style="fill:#99c3b9; stroke:none;" d="M493 487L494 488L493 487z"/>
<path style="fill:#6bb5a7; stroke:none;" d="M511 487L512 488L511 487z"/>
<path style="fill:#99c3b9; stroke:none;" d="M519 487L520 488L519 487M540.333 487.667L540.667 488.333L540.333 487.667z"/>
<path style="fill:#c9d3cb; stroke:none;" d="M609 487L610 488L609 487z"/>
<path style="fill:#99c3b9; stroke:none;" d="M634 487L634 491L635 491L634 487z"/>
<path style="fill:#c9d3cb; stroke:none;" d="M661 487L662 488L661 487z"/>
<path style="fill:#6bb5a7; stroke:none;" d="M709 487L710 488L709 487z"/>
<path style="fill:#99c3b9; stroke:none;" d="M743 487L744 488L743 487M764.333 487.667L764.667 488.333L764.333 487.667z"/>
<path style="fill:#6bb5a7; stroke:none;" d="M829 487L830 488L829 487z"/>
<path style="fill:#99c3b9; stroke:none;" d="M858 487L858 491L859 491L858 487z"/>
<path style="fill:#c9d3cb; stroke:none;" d="M380 488L381 489L380 488M410 488L411 489L410 488z"/>
<path style="fill:#6bb5a7; stroke:none;" d="M426 488L427 489L426 488z"/>
<path style="fill:#99c3b9; stroke:none;" d="M442 488L443 489L442 488z"/>
<path style="fill:#c9d3cb; stroke:none;" d="M494 488L495 489L494 488z"/>
<path style="fill:#6bb5a7; stroke:none;" d="M510 488L511 489L510 488z"/>
<path style="fill:#c9d3cb; stroke:none;" d="M520 488L521 489L520 488M662 488L663 489L662 488z"/>
<path style="fill:#6bb5a7; stroke:none;" d="M689 488L690 489L689 488z"/>
<path style="fill:#c9d3cb; stroke:none;" d="M744 488L745 489L744 488z"/>
<path style="fill:#6bb5a7; stroke:none;" d="M830 488L831 489L830 488z"/>
<path style="fill:#c9d3cb; stroke:none;" d="M847 488L848 489L847 488M329 489L330 490L329 489M381 489L382 490L381 489z"/>
<path style="fill:#6bb5a7; stroke:none;" d="M393 489L394 490L393 489z"/>
<path style="fill:#c9d3cb; stroke:none;" d="M394 489L395 490L394 489M400 489L401 490L400 489z"/>
<path style="fill:#99c3b9; stroke:none;" d="M411 489L412 490L411 489z"/>
<path style="fill:#c9d3cb; stroke:none;" d="M424 489L425 490L424 489z"/>
<path style="fill:#6bb5a7; stroke:none;" d="M425 489L426 490L425 489z"/>
<path style="fill:#99c3b9; stroke:none;" d="M443 489L444 490L443 489z"/>
<path style="fill:#6bb5a7; stroke:none;" d="M457 489L458 490L457 489z"/>
<path style="fill:#99c3b9; stroke:none;" d="M495 489L496 490L495 489z"/>
<path style="fill:#c9d3cb; stroke:none;" d="M508 489L509 490L508 489z"/>
<path style="fill:#6bb5a7; stroke:none;" d="M509 489L510 490L509 489z"/>
<path style="fill:#c9d3cb; stroke:none;" d="M521 489L522 490L521 489z"/>
<path style="fill:#6bb5a7; stroke:none;" d="M533 489L534 490L533 489z"/>
<path style="fill:#c9d3cb; stroke:none;" d="M534 489L535 490L534 489M540 489L541 490L540 489M609 489L610 490L609 489z"/>
<path style="fill:#99c3b9; stroke:none;" d="M663 489L664 490L663 489z"/>
<path style="fill:#c9d3cb; stroke:none;" d="M676 489L677 490L676 489z"/>
<path style="fill:#6bb5a7; stroke:none;" d="M690 489L691 490L690 489z"/>
<path style="fill:#c9d3cb; stroke:none;" d="M691 489L692 490L691 489M701 489L702 490L701 489z"/>
<path style="fill:#99c3b9; stroke:none;" d="M702 489L703 490L702 489z"/>
<path style="fill:#6bb5a7; stroke:none;" d="M709 489L710 490L709 489z"/>
<path style="fill:#c9d3cb; stroke:none;" d="M745 489L746 490L745 489z"/>
<path style="fill:#6bb5a7; stroke:none;" d="M757 489L758 490L757 489z"/>
<path style="fill:#c9d3cb; stroke:none;" d="M758 489L759 490L758 489M764 489L765 490L764 489M832 489L833 490L832 489z"/>
<path style="fill:#99c3b9; stroke:none;" d="M846 489L847 490L846 489z"/>
<path style="fill:#6bb5a7; stroke:none;" d="M382 490L383 491L382 490z"/>
<path style="fill:#c9d3cb; stroke:none;" d="M383 490L384 491L383 490z"/>
<path style="fill:#99c3b9; stroke:none;" d="M391 490L392 491L391 490M394 490L395 491L394 490z"/>
<path style="fill:#6bb5a7; stroke:none;" d="M401 490L402 491L401 490z"/>
<path style="fill:#99c3b9; stroke:none;" d="M413 490L414 491L413 490z"/>
<path style="fill:#c9d3cb; stroke:none;" d="M422 490L423 491L422 490z"/>
<path style="fill:#6bb5a7; stroke:none;" d="M423 490L424 491L423 490M444 490L445 491L444 490z"/>
<path style="fill:#c9d3cb; stroke:none;" d="M445 490L446 491L445 490M455 490L456 491L455 490z"/>
<path style="fill:#6bb5a7; stroke:none;" d="M456 490L457 491L456 490z"/>
<path style="fill:#99c3b9; stroke:none;" d="M497 490L498 491L497 490z"/>
<path style="fill:#c9d3cb; stroke:none;" d="M506 490L507 491L506 490z"/>
<path style="fill:#6bb5a7; stroke:none;" d="M507 490L508 491L507 490M522 490L523 491L522 490z"/>
<path style="fill:#c9d3cb; stroke:none;" d="M523 490L524 491L523 490z"/>
<path style="fill:#99c3b9; stroke:none;" d="M531 490L532 491L531 490M534 490L535 491L534 490z"/>
<path style="fill:#6bb5a7; stroke:none;" d="M541 490L542 491L541 490M664 490L665 491L664 490z"/>
<path style="fill:#c9d3cb; stroke:none;" d="M665 490L666 491L665 490M674 490L675 491L674 490z"/>
<path style="fill:#6bb5a7; stroke:none;" d="M675 490L676 491L675 490z"/>
<path style="fill:#99c3b9; stroke:none;" d="M692 490L693 491L692 490z"/>
<path style="fill:#c9d3cb; stroke:none;" d="M693 490L694 491L693 490z"/>
<path style="fill:#99c3b9; stroke:none;" d="M700 490L701 491L700 490z"/>
<path style="fill:#6bb5a7; stroke:none;" d="M702 490L703 491L702 490M718 490L719 491L718 490M746 490L747 491L746 490z"/>
<path style="fill:#c9d3cb; stroke:none;" d="M747 490L748 491L747 490z"/>
<path style="fill:#99c3b9; stroke:none;" d="M755 490L756 491L755 490M758 490L759 491L758 490z"/>
<path style="fill:#6bb5a7; stroke:none;" d="M765 490L766 491L765 490M833 490L834 491L833 490z"/>
<path style="fill:#c9d3cb; stroke:none;" d="M834 490L835 491L834 490M843 490L844 491L843 490z"/>
<path style="fill:#99c3b9; stroke:none;" d="M844 490L845 491L844 490z"/>
<path style="fill:#6bb5a7; stroke:none;" d="M385 491L386 492L385 491z"/>
<path style="fill:#99c3b9; stroke:none;" d="M386.667 491.333L387.333 491.667L386.667 491.333z"/>
<path style="fill:#6bb5a7; stroke:none;" d="M388.667 491.333L389.333 491.667L388.667 491.333M415.667 491.333L416.333 491.667L415.667 491.333z"/>
<path style="fill:#99c3b9; stroke:none;" d="M417 491L417 492L420 492L417 491z"/>
<path style="fill:#6bb5a7; stroke:none;" d="M420 491L421 492L420 491M447 491L448 492L447 491z"/>
<path style="fill:#99c3b9; stroke:none;" d="M448 491L448 492L452 492L448 491z"/>
<path style="fill:#6bb5a7; stroke:none;" d="M452.667 491.333L453.333 491.667L452.667 491.333M499.667 491.333L500.333 491.667L499.667 491.333z"/>
<path style="fill:#99c3b9; stroke:none;" d="M501 491L501 492L504 492L501 491z"/>
<path style="fill:#6bb5a7; stroke:none;" d="M504 491L505 492L504 491M525 491L526 492L525 491z"/>
<path style="fill:#99c3b9; stroke:none;" d="M526.667 491.333L527.333 491.667L526.667 491.333z"/>
<path style="fill:#6bb5a7; stroke:none;" d="M528.667 491.333L529.333 491.667L528.667 491.333M667.667 491.333L668.333 491.667L667.667 491.333z"/>
<path style="fill:#99c3b9; stroke:none;" d="M669 491L669 492L672 492L669 491z"/>
<path style="fill:#6bb5a7; stroke:none;" d="M672 491L673 492L672 491M694.667 491.333L695.333 491.667L694.667 491.333z"/>
<path style="fill:#99c3b9; stroke:none;" d="M696 491L697 492L696 491z"/>
<path style="fill:#6bb5a7; stroke:none;" d="M697.667 491.333L698.333 491.667L697.667 491.333z"/>
<path style="fill:#99c3b9; stroke:none;" d="M702.333 491.667L702.667 492.333L702.333 491.667z"/>
<path style="fill:#6bb5a7; stroke:none;" d="M749 491L750 492L749 491z"/>
<path style="fill:#99c3b9; stroke:none;" d="M750.667 491.333L751.333 491.667L750.667 491.333z"/>
<path style="fill:#6bb5a7; stroke:none;" d="M752.667 491.333L753.333 491.667L752.667 491.333M836.667 491.333L837.333 491.667L836.667 491.333z"/>
<path style="fill:#99c3b9; stroke:none;" d="M838 491L838 492L841 492L838 491z"/>
<path style="fill:#6bb5a7; stroke:none;" d="M841.667 491.333L842.333 491.667L841.667 491.333z"/>
<path style="fill:#99c3b9; stroke:none;" d="M690.667 493.333L691.333 493.667L690.667 493.333z"/>
<path style="fill:#6bb5a7; stroke:none;" d="M701 493L700 495L701 493z"/>
<path style="fill:#99c3b9; stroke:none;" d="M708 493L709 494L708 493z"/>
<path style="fill:#6bb5a7; stroke:none;" d="M689 494L690 495L689 494z"/>
<path style="fill:#c9d3cb; stroke:none;" d="M692 494L693 495L692 494M701 494L702 495L701 494z"/>
<path style="fill:#6bb5a7; stroke:none;" d="M708 494L709 495L708 494z"/>
<path style="fill:#c9d3cb; stroke:none;" d="M689 495L690 496L689 495M694 495L695 496L694 495z"/>
<path style="fill:#99c3b9; stroke:none;" d="M695 495L696 496L695 495z"/>
<path style="fill:#6bb5a7; stroke:none;" d="M696 495L696 496L699 496L696 495z"/>
<path style="fill:#c9d3cb; stroke:none;" d="M699 495L700 496L699 495M707 495L708 496L707 495M688 496L689 497L688 496z"/>
<path style="fill:#6bb5a7; stroke:none;" d="M707 496L708 497L707 496M688 497L689 498L688 497M706 497L707 498L706 497M689 498L690 499L689 498z"/>
<path style="fill:#c9d3cb; stroke:none;" d="M690 498L691 499L690 498z"/>
<path style="fill:#6bb5a7; stroke:none;" d="M705 498L706 499L705 498z"/>
<path style="fill:#99c3b9; stroke:none;" d="M691 499L692 500L691 499z"/>
<path style="fill:#c9d3cb; stroke:none;" d="M692 499L693 500L692 499z"/>
<path style="fill:#99c3b9; stroke:none;" d="M703 499L704 500L703 499z"/>
<path style="fill:#6bb5a7; stroke:none;" d="M693 500L694 501L693 500z"/>
<path style="fill:#99c3b9; stroke:none;" d="M694.667 500.333L695.333 500.667L694.667 500.333z"/>
<path style="fill:#c9d3cb; stroke:none;" d="M696 500L696 501L699 501L696 500z"/>
<path style="fill:#99c3b9; stroke:none;" d="M699.667 500.333L700.333 500.667L699.667 500.333z"/>
<path style="fill:#6bb5a7; stroke:none;" d="M701 500L702 501L701 500M532 609L533 610L532 609z"/>
<path style="fill:#99c3b9; stroke:none;" d="M533 609L533 610L667 610C656.496 605.592 638.42 609 627 609L533 609z"/>
<path style="fill:#6bb5a7; stroke:none;" d="M667 609L668 610L667 609M530 610L531 611L530 610z"/>
<path style="fill:#c9d3cb; stroke:none;" d="M531 610L532 611L531 610z"/>
<path style="fill:#f5e1db; stroke:none;" d="M532.044 610.742C523.431 614.252 527 633.492 527 641C527 659.786 530.575 682.656 526.61 701C524.835 709.208 518.985 717.519 515.247 725C511.626 732.247 506.01 745.219 512.703 752.566C515.492 755.628 520.261 754.999 524 755L553 755L646 755C656.795 755 674.946 758.512 684.892 754.258C693.219 750.696 689.999 736.14 687.208 730C682.98 720.699 675.557 711.02 673.39 701C670.402 687.175 673 670.146 673 656C673 645.416 677.371 621.995 670.991 613.228C666.031 606.414 645.639 610 638 610L564 610C554.872 610 540.541 607.28 532.044 610.742z"/>
<path style="fill:#99c3b9; stroke:none;" d="M668 610L669 611L668 610z"/>
<path style="fill:#6bb5a7; stroke:none;" d="M669 610L670 611L669 610z"/>
<path style="fill:#99c3b9; stroke:none;" d="M529 611L530 612L529 611z"/>
<path style="fill:#6bb5a7; stroke:none;" d="M670 611L671 612L670 611M528 612L529 613L528 612M671 612L672 613L671 612M527 613L528 614L527 613z"/>
<path style="fill:#c9d3cb; stroke:none;" d="M671 613L672 614L671 613z"/>
<path style="fill:#99c3b9; stroke:none;" d="M527 614L528 615L527 614M672 614L673 615L672 614M533 615L534 616L533 615z"/>
<path style="fill:#6bb5a7; stroke:none;" d="M534 615L535 616L534 615z"/>
<path style="fill:#41a799; stroke:none;" d="M533 699L574 699L624 699C626.033 699 641.269 698.086 637.94 703.416C636.44 705.817 631.343 704.999 629 705L604 705L553 705C547.409 705 537.235 703.053 532.329 706.028C525.792 709.991 520.049 725.887 518 733L682 733C678.848 722.058 670.735 712.915 667.637 702C663.729 688.231 667 669.306 667 655L667 627C667 624.135 667.912 619.14 665.972 616.742C662.325 612.235 645.41 615 640 615L563 615C557.159 615 537.915 611.937 534.028 616.742C530.653 620.913 533 633.798 533 639L533 699z"/>
<path style="fill:#6bb5a7; stroke:none;" d="M665 615L666 616L665 615z"/>
<path style="fill:#c9d3cb; stroke:none;" d="M666 615L667 616L666 615M672 615L673 616L672 615z"/>
<path style="fill:#6bb5a7; stroke:none;" d="M526 616L526 702L527 702L527 643L526 616z"/>
<path style="fill:#c9d3cb; stroke:none;" d="M532 616L533 617L532 616M667 616L668 617L667 616z"/>
<path style="fill:#99c3b9; stroke:none;" d="M532 617L533 618L532 617M667 617L667 702L668 702L668 643L667 617z"/>
<path style="fill:#6bb5a7; stroke:none;" d="M532 618L532 639L533 639L532 618M673 618L673 702L674 702L674 644L673 618M542 620L542 621L658 621L623 620L542 620M540 621L541 622L540 621z"/>
<path style="fill:#c9d3cb; stroke:none;" d="M541 621L542 622L541 621z"/>
<path style="fill:#f5e1db; stroke:none;" d="M542.148 621.742C537.264 623.952 539 632.674 539 637L539 677C539 680.88 537.593 688.386 540.603 691.397C545.117 695.91 561.903 693 568 693L633 693C639.599 693 653.033 695.558 658.721 691.972C663 689.275 662 682.285 662 678L662 637C662 632.525 663.207 624.856 658.721 622.028C652.676 618.217 638.033 621 631 621L569 621C561.486 621 549.055 618.618 542.148 621.742z"/>
<path style="fill:#6bb5a7; stroke:none;" d="M659 621L660 622L659 621z"/>
<path style="fill:#99c3b9; stroke:none;" d="M539 622L540 623L539 622M660 622L661 623L660 622z"/>
<path style="fill:#6bb5a7; stroke:none;" d="M538 623L539 624L538 623M661 623L662 624L661 623z"/>
<path style="fill:#99c3b9; stroke:none;" d="M538 624L539 625L538 624M661 624L662 625L661 624z"/>
<path style="fill:#c9d3cb; stroke:none;" d="M538 625L538 690L539 690L539 646L538 625M661 625L662 626L661 625M543 626L543 671C543 675.125 541.338 684 544.028 687.397C547.163 691.355 561.33 689 566 689L632 689C636.956 689 652.679 691.554 655.972 687.397C658.662 684 657 675.125 657 671L657 626L656 626L656 688L544 688L544 646L543 626z"/>
<path style="fill:#6bb5a7; stroke:none;" d="M544 626L544 627L656 627L622 626L544 626z"/>
<path style="fill:#41a799; stroke:none;" d="M544 627L544 688L656 688L656 627L544 627z"/>
<path style="fill:#6bb5a7; stroke:none;" d="M605.667 634.333L606.333 634.667L605.667 634.333M603 635L604 636L603 635z"/>
<path style="fill:#f5e1db; stroke:none;" d="M604.004 636.176C601.379 637.299 599.869 642.932 604.004 641.654C607.329 640.627 608.252 634.359 604.004 636.176z"/>
<path style="fill:#99c3b9; stroke:none;" d="M607 635L608 636L607 635M602 636L603 637L602 636z"/>
<path style="fill:#6bb5a7; stroke:none;" d="M608 636L609 637L608 636z"/>
<path style="fill:#99c3b9; stroke:none;" d="M601 637L602 638L601 637M608 637L609 638L608 637z"/>
<path style="fill:#6bb5a7; stroke:none;" d="M600 638L601 639L600 638M608 638L609 639L608 638z"/>
<path style="fill:#99c3b9; stroke:none;" d="M532 639L532 682C532 686.125 530.338 695 533.028 698.397C536.475 702.749 553.761 700 559 700L638 700L638 699L533 699L533 658L532 639M607 639L608 640L607 639z"/>
<path style="fill:#c9d3cb; stroke:none;" d="M606 640L607 641L606 640M600 641L601 642L600 641z"/>
<path style="fill:#99c3b9; stroke:none;" d="M605 641L606 642L605 641z"/>
<path style="fill:#c9d3cb; stroke:none;" d="M601 642L602 643L601 642z"/>
<path style="fill:#99c3b9; stroke:none;" d="M604 642L605 643L604 642M595 646L596 647L595 646z"/>
<path style="fill:#c9d3cb; stroke:none;" d="M596.667 646.333L597.333 646.667L596.667 646.333z"/>
<path style="fill:#f5e1db; stroke:none;" d="M598 646.507C576.572 649.584 581.574 682.13 603 678.786C616.422 676.691 607.828 669.484 608.647 662C608.974 659.008 611.831 656.965 612.094 654.015C612.633 647.978 602.34 645.884 598 646.507z"/>
<path style="fill:#c9d3cb; stroke:none;" d="M602.667 646.333L603.333 646.667L602.667 646.333z"/>
<path style="fill:#99c3b9; stroke:none;" d="M604 646L605 647L604 646z"/>
<path style="fill:#6bb5a7; stroke:none;" d="M592 647L593 648L592 647z"/>
<path style="fill:#c9d3cb; stroke:none;" d="M593 647L594 648L593 647M606 647L607 648L606 647z"/>
<path style="fill:#6bb5a7; stroke:none;" d="M607 647L608 648L607 647M590 648L591 649L590 648z"/>
<path style="fill:#c9d3cb; stroke:none;" d="M591 648L592 649L591 648z"/>
<path style="fill:#99c3b9; stroke:none;" d="M608 648L609 649L608 648z"/>
<path style="fill:#6bb5a7; stroke:none;" d="M589 649L590 650L589 649M610 649L611 650L610 649z"/>
<path style="fill:#99c3b9; stroke:none;" d="M588 650L589 651L588 650M611 650L612 651L611 650M587 651L588 652L587 651z"/>
<path style="fill:#c9d3cb; stroke:none;" d="M597.667 651.333L598.333 651.667L597.667 651.333z"/>
<path style="fill:#99c3b9; stroke:none;" d="M599.667 651.333L600.333 651.667L599.667 651.333z"/>
<path style="fill:#c9d3cb; stroke:none;" d="M601.667 651.333L602.333 651.667L601.667 651.333z"/>
<path style="fill:#99c3b9; stroke:none;" d="M612 651L613 652L612 651z"/>
<path style="fill:#6bb5a7; stroke:none;" d="M586 652L587 653L586 652z"/>
<path style="fill:#99c3b9; stroke:none;" d="M595 652L596 653L595 652z"/>
<path style="fill:#6bb5a7; stroke:none;" d="M596 652L597 653L596 652z"/>
<path style="fill:#41a799; stroke:none;" d="M605 673C603.627 664.918 602.534 660.808 606 653C584.97 649.11 585.077 676.532 605 673z"/>
<path style="fill:#6bb5a7; stroke:none;" d="M603 652L604 653L603 652z"/>
<path style="fill:#99c3b9; stroke:none;" d="M604 652L605 653L604 652z"/>
<path style="fill:#c9d3cb; stroke:none;" d="M593 653L594 654L593 653z"/>
<path style="fill:#6bb5a7; stroke:none;" d="M613.333 653.667L613.667 654.333L613.333 653.667z"/>
<path style="fill:#c9d3cb; stroke:none;" d="M585 654L586 655L585 654z"/>
<path style="fill:#99c3b9; stroke:none;" d="M592 654L593 655L592 654M605 654L606 655L605 654z"/>
<path style="fill:#6bb5a7; stroke:none;" d="M584 655L585 656L584 655z"/>
<path style="fill:#99c3b9; stroke:none;" d="M591 655L592 656L591 655M612 655L613 656L612 655M584 656L585 657L584 656z"/>
<path style="fill:#c9d3cb; stroke:none;" d="M590 656L591 657L590 656M604 656L605 657L604 656z"/>
<path style="fill:#99c3b9; stroke:none;" d="M611 656L612 657L611 656z"/>
<path style="fill:#6bb5a7; stroke:none;" d="M603 657L604 658L603 657M610 657L611 658L610 657M583 658L584 659L583 658z"/>
<path style="fill:#c9d3cb; stroke:none;" d="M589 658L590 659L589 658z"/>
<path style="fill:#99c3b9; stroke:none;" d="M603 658L604 659L603 658z"/>
<path style="fill:#c9d3cb; stroke:none;" d="M609 658L610 659L609 658z"/>
<path style="fill:#99c3b9; stroke:none;" d="M583 659L584 660L583 659z"/>
<path style="fill:#6bb5a7; stroke:none;" d="M589 659L590 660L589 659z"/>
<path style="fill:#c9d3cb; stroke:none;" d="M603 659L604 660L603 659z"/>
<path style="fill:#6bb5a7; stroke:none;" d="M609 659L610 660L609 659z"/>
<path style="fill:#c9d3cb; stroke:none;" d="M583 660L583 665L584 665L583 660M608 660L609 661L608 660M588 661L588 664L589 664L588 661z"/>
<path style="fill:#99c3b9; stroke:none;" d="M608 661L608 664L609 664L608 661z"/>
<path style="fill:#6bb5a7; stroke:none;" d="M602.333 662.667L602.667 663.333L602.333 662.667z"/>
<path style="fill:#c9d3cb; stroke:none;" d="M608 664L609 665L608 664z"/>
<path style="fill:#99c3b9; stroke:none;" d="M583.333 665.667L583.667 666.333L583.333 665.667z"/>
<path style="fill:#6bb5a7; stroke:none;" d="M589 665L590 666L589 665z"/>
<path style="fill:#99c3b9; stroke:none;" d="M589 666L590 667L589 666M603.333 666.667L603.667 667.333L603.333 666.667z"/>
<path style="fill:#6bb5a7; stroke:none;" d="M609 666L610 667L609 666M583 667L584 668L583 667z"/>
<path style="fill:#c9d3cb; stroke:none;" d="M589 667L590 668L589 667M584 668L585 669L584 668z"/>
<path style="fill:#99c3b9; stroke:none;" d="M590 668L591 669L590 668z"/>
<path style="fill:#c9d3cb; stroke:none;" d="M604 668L605 669L604 668z"/>
<path style="fill:#99c3b9; stroke:none;" d="M610 668L611 669L610 668M584 669L585 670L584 669M604 669L605 670L604 669z"/>
<path style="fill:#c9d3cb; stroke:none;" d="M611 669L612 670L611 669M591 670L592 671L591 670M605 670L606 671L605 670M612 670L613 671L612 670z"/>
<path style="fill:#6bb5a7; stroke:none;" d="M585 671L586 672L585 671z"/>
<path style="fill:#c9d3cb; stroke:none;" d="M592 671L593 672L592 671z"/>
<path style="fill:#6bb5a7; stroke:none;" d="M593 671L594 672L593 671M605 671L606 672L605 671M613.333 671.667L613.667 672.333L613.333 671.667z"/>
<path style="fill:#c9d3cb; stroke:none;" d="M586 672L588 674L586 672z"/>
<path style="fill:#99c3b9; stroke:none;" d="M594 672L595 673L594 672M605 672L606 673L605 672z"/>
<path style="fill:#6bb5a7; stroke:none;" d="M586 673L587 674L586 673z"/>
<path style="fill:#99c3b9; stroke:none;" d="M596 673L597 674L596 673z"/>
<path style="fill:#6bb5a7; stroke:none;" d="M597 673L598 674L597 673M602 673L603 674L602 673z"/>
<path style="fill:#99c3b9; stroke:none;" d="M603 673L604 674L603 673z"/>
<path style="fill:#c9d3cb; stroke:none;" d="M604 673L605 674L604 673M612 673L611 675L612 673z"/>
<path style="fill:#6bb5a7; stroke:none;" d="M587 674L588 675L587 674M612 674L613 675L612 674M588 675L589 676L588 675z"/>
<path style="fill:#c9d3cb; stroke:none;" d="M589 675L590 676L589 675M610 675L611 676L610 675M590 676L591 677L590 676M609 676L610 677L609 676z"/>
<path style="fill:#6bb5a7; stroke:none;" d="M591 677L592 678L591 677z"/>
<path style="fill:#c9d3cb; stroke:none;" d="M592 677L593 678L592 677M607 677L608 678L607 677z"/>
<path style="fill:#6bb5a7; stroke:none;" d="M608 677L609 678L608 677z"/>
<path style="fill:#99c3b9; stroke:none;" d="M593 678L594 679L593 678z"/>
<path style="fill:#c9d3cb; stroke:none;" d="M594 678L595 679L594 678z"/>
<path style="fill:#99c3b9; stroke:none;" d="M605 678L606 679L605 678z"/>
<path style="fill:#6bb5a7; stroke:none;" d="M606 678L607 679L606 678M596 679L597 680L596 679z"/>
<path style="fill:#99c3b9; stroke:none;" d="M597 679L597 680L600 680L597 679z"/>
<path style="fill:#c9d3cb; stroke:none;" d="M600 679L601 680L600 679z"/>
<path style="fill:#99c3b9; stroke:none;" d="M601.667 679.333L602.333 679.667L601.667 679.333z"/>
<path style="fill:#6bb5a7; stroke:none;" d="M603 679L604 680L603 679z"/>
<path style="fill:#c9d3cb; stroke:none;" d="M661.333 688.667L661.667 689.333L661.333 688.667z"/>
<path style="fill:#6bb5a7; stroke:none;" d="M538 690L539 691L538 690M661 690L662 691L661 690z"/>
<path style="fill:#c9d3cb; stroke:none;" d="M539 691L540 692L539 691M660 691L661 692L660 691M540 692L541 693L540 692M659 692L660 693L659 692z"/>
<path style="fill:#6bb5a7; stroke:none;" d="M541 693L542 694L541 693z"/>
<path style="fill:#c9d3cb; stroke:none;" d="M542 693L542 694L658 694L623 693L542 693z"/>
<path style="fill:#6bb5a7; stroke:none;" d="M658 693L659 694L658 693z"/>
<path style="fill:#c9d3cb; stroke:none;" d="M532 699L533 700L532 699z"/>
<path style="fill:#6bb5a7; stroke:none;" d="M646 699L647 700L646 699z"/>
<path style="fill:#99c3b9; stroke:none;" d="M647 699L647 700L660 700L647 699z"/>
<path style="fill:#6bb5a7; stroke:none;" d="M660 699L662 701L660 699z"/>
<path style="fill:#c9d3cb; stroke:none;" d="M638 700L639 701L638 700z"/>
<path style="fill:#99c3b9; stroke:none;" d="M645 700L646 701L645 700z"/>
<path style="fill:#f5e1db; stroke:none;" d="M661 700L654.995 700C635.611 700.009 659.083 711.485 661 700z"/>
<path style="fill:#6bb5a7; stroke:none;" d="M639.333 701.667L639.667 702.333L639.333 701.667z"/>
<path style="fill:#c9d3cb; stroke:none;" d="M645 701L646 702L645 701M661.333 701.667L661.667 702.333L661.333 701.667M526 702L527 703L526 702z"/>
<path style="fill:#6bb5a7; stroke:none;" d="M667 702L668 703L667 702z"/>
<path style="fill:#c9d3cb; stroke:none;" d="M673 702L674 703L673 702z"/>
<path style="fill:#99c3b9; stroke:none;" d="M645 703L646 704L645 703M661 703L662 704L661 703z"/>
<path style="fill:#6bb5a7; stroke:none;" d="M674 703L675 704L674 703z"/>
<path style="fill:#c9d3cb; stroke:none;" d="M525 704L526 705L525 704M637 704L638 705L637 704z"/>
<path style="fill:#6bb5a7; stroke:none;" d="M638 704L639 705L638 704z"/>
<path style="fill:#c9d3cb; stroke:none;" d="M646 704L647 705L646 704z"/>
<path style="fill:#99c3b9; stroke:none;" d="M660 704L661 705L660 704z"/>
<path style="fill:#c9d3cb; stroke:none;" d="M668 704L669 705L668 704z"/>
<path style="fill:#99c3b9; stroke:none;" d="M674 704L675 705L674 704z"/>
<path style="fill:#6bb5a7; stroke:none;" d="M524 705L525 706L524 705M531 705L532 706L531 705M675 705L676 706L675 705z"/>
<path style="fill:#99c3b9; stroke:none;" d="M524 706L525 707L524 706M530 706L531 707L530 706z"/>
<path style="fill:#c9d3cb; stroke:none;" d="M669 706L670 707L669 706z"/>
<path style="fill:#99c3b9; stroke:none;" d="M675 706L676 707L675 706z"/>
<path style="fill:#6bb5a7; stroke:none;" d="M523 707L524 708L523 707M530 707L531 708L530 707M676 707L677 708L676 707z"/>
<path style="fill:#99c3b9; stroke:none;" d="M523 708L524 709L523 708z"/>
<path style="fill:#c9d3cb; stroke:none;" d="M529 708L530 709L529 708M670 708L671 709L670 708z"/>
<path style="fill:#99c3b9; stroke:none;" d="M676 708L677 709L676 708z"/>
<path style="fill:#6bb5a7; stroke:none;" d="M522 709L523 710L522 709M677 709L678 710L677 709z"/>
<path style="fill:#99c3b9; stroke:none;" d="M522 710L523 711L522 710z"/>
<path style="fill:#c9d3cb; stroke:none;" d="M528 710L529 711L528 710z"/>
<path style="fill:#6bb5a7; stroke:none;" d="M537 710L537 711L545 711L537 710M554 710L554 711L562 711L554 710M571 710L571 711L579 711L571 710M586 711L586 712L596 711L586 711M604 710L604 711L614 712L604 710M621 710L621 711L629 711L621 710M638 710L638 711L646 711L638 710M655 710L655 711L663 711L655 710z"/>
<path style="fill:#c9d3cb; stroke:none;" d="M671 710L672 711L671 710z"/>
<path style="fill:#99c3b9; stroke:none;" d="M677 710L678 711L677 710z"/>
<path style="fill:#6bb5a7; stroke:none;" d="M521 711L522 712L521 711z"/>
<path style="fill:#c9d3cb; stroke:none;" d="M536 711L537 712L536 711z"/>
<path style="fill:#f5e1db; stroke:none;" d="M537.662 712.008C534.178 714.922 542.059 716.897 544.338 714.992C547.822 712.078 539.941 710.103 537.662 712.008z"/>
<path style="fill:#c9d3cb; stroke:none;" d="M545 711L546 712L545 711z"/>
<path style="fill:#f5e1db; stroke:none;" d="M553 711C554.703 721.202 568.103 711.674 557.04 711.019C555.706 710.94 554.335 711.001 553 711z"/>
<path style="fill:#c9d3cb; stroke:none;" d="M562 711L563 712L562 711z"/>
<path style="fill:#6bb5a7; stroke:none;" d="M569 711L570 712L569 711z"/>
<path style="fill:#f5e1db; stroke:none;" d="M570.89 712.008C567.818 715.04 576.196 716.781 578.338 714.992C581.894 712.021 573.165 709.764 570.89 712.008z"/>
<path style="fill:#99c3b9; stroke:none;" d="M579 711L580 712L579 711z"/>
<path style="fill:#f5e1db; stroke:none;" d="M587.89 712.008C584.818 715.04 593.196 716.781 595.338 714.992C598.894 712.021 590.165 709.764 587.89 712.008z"/>
<path style="fill:#99c3b9; stroke:none;" d="M596 711L597 712L596 711M603 711L604 712L603 711z"/>
<path style="fill:#f5e1db; stroke:none;" d="M604.662 712.008C601.011 715.071 609.318 716.601 611.573 714.992C615.749 712.012 607.142 709.928 604.662 712.008z"/>
<path style="fill:#99c3b9; stroke:none;" d="M620 711L621 712L620 711z"/>
<path style="fill:#f5e1db; stroke:none;" d="M630 711C628.665 711.001 627.294 710.94 625.96 711.019C614.897 711.674 628.297 721.202 630 711z"/>
<path style="fill:#6bb5a7; stroke:none;" d="M630 711L631 712L630 711z"/>
<path style="fill:#c9d3cb; stroke:none;" d="M637 711L638 712L637 711z"/>
<path style="fill:#f5e1db; stroke:none;" d="M647 711C645.665 711.001 644.294 710.94 642.96 711.019C631.897 711.674 645.297 721.202 647 711z"/>
<path style="fill:#c9d3cb; stroke:none;" d="M654 711L655 712L654 711z"/>
<path style="fill:#f5e1db; stroke:none;" d="M655.662 712.008C652.178 714.922 660.059 716.897 662.338 714.992C665.822 712.078 657.941 710.103 655.662 712.008z"/>
<path style="fill:#c9d3cb; stroke:none;" d="M663 711L664 712L663 711z"/>
<path style="fill:#6bb5a7; stroke:none;" d="M678 711L679 712L678 711z"/>
<path style="fill:#99c3b9; stroke:none;" d="M521 712L522 713L521 712z"/>
<path style="fill:#c9d3cb; stroke:none;" d="M527 712L528 713L527 712z"/>
<path style="fill:#99c3b9; stroke:none;" d="M535 712L536 713L535 712M546.333 712.667L546.667 713.333L546.333 712.667z"/>
<path style="fill:#c9d3cb; stroke:none;" d="M552.333 712.667L552.667 713.333L552.333 712.667z"/>
<path style="fill:#6bb5a7; stroke:none;" d="M563 712L563 715L564 715L563 712z"/>
<path style="fill:#c9d3cb; stroke:none;" d="M569 712L570 713L569 712z"/>
<path style="fill:#6bb5a7; stroke:none;" d="M580.333 712.667L580.667 713.333L580.333 712.667z"/>
<path style="fill:#c9d3cb; stroke:none;" d="M586 712L587 713L586 712M613 712L614 713L613 712z"/>
<path style="fill:#6bb5a7; stroke:none;" d="M619 712L619 715L620 715L619 712z"/>
<path style="fill:#c9d3cb; stroke:none;" d="M630 712L629 716L630 716L630 712z"/>
<path style="fill:#6bb5a7; stroke:none;" d="M636 712L637 713L636 712z"/>
<path style="fill:#99c3b9; stroke:none;" d="M647 712L648 713L647 712M653.333 712.667L653.667 713.333L653.333 712.667M664 712L665 713L664 712z"/>
<path style="fill:#c9d3cb; stroke:none;" d="M672 712L673 713L672 712z"/>
<path style="fill:#99c3b9; stroke:none;" d="M678 712L679 713L678 712z"/>
<path style="fill:#6bb5a7; stroke:none;" d="M520 713L521 714L520 713z"/>
<path style="fill:#c9d3cb; stroke:none;" d="M535 713L536 714L535 713z"/>
<path style="fill:#6bb5a7; stroke:none;" d="M597 713L598 714L597 713M602 713L603 714L602 713z"/>
<path style="fill:#99c3b9; stroke:none;" d="M636 713L637 714L636 713z"/>
<path style="fill:#c9d3cb; stroke:none;" d="M647 713L648 714L647 713M664 713L665 714L664 713z"/>
<path style="fill:#6bb5a7; stroke:none;" d="M679 713L680 714L679 713z"/>
<path style="fill:#99c3b9; stroke:none;" d="M520 714L521 715L520 714z"/>
<path style="fill:#c9d3cb; stroke:none;" d="M526 714L527 715L526 714z"/>
<path style="fill:#99c3b9; stroke:none;" d="M535 714L536 715L535 714z"/>
<path style="fill:#6bb5a7; stroke:none;" d="M546 714L547 715L546 714z"/>
<path style="fill:#99c3b9; stroke:none;" d="M552 714L553 715L552 714z"/>
<path style="fill:#c9d3cb; stroke:none;" d="M569 714L571 716L569 714M586 714L588 716L586 714M613 714L612 716L613 714z"/>
<path style="fill:#6bb5a7; stroke:none;" d="M636 714L637 715L636 714z"/>
<path style="fill:#99c3b9; stroke:none;" d="M647 714L648 715L647 714z"/>
<path style="fill:#6bb5a7; stroke:none;" d="M653 714L654 715L653 714z"/>
<path style="fill:#99c3b9; stroke:none;" d="M664 714L665 715L664 714z"/>
<path style="fill:#c9d3cb; stroke:none;" d="M673 714L674 715L673 714z"/>
<path style="fill:#99c3b9; stroke:none;" d="M679 714L680 715L679 714z"/>
<path style="fill:#6bb5a7; stroke:none;" d="M519 715L520 716L519 715z"/>
<path style="fill:#c9d3cb; stroke:none;" d="M536 715L537 716L536 715z"/>
<path style="fill:#99c3b9; stroke:none;" d="M545 715L546 716L545 715z"/>
<path style="fill:#c9d3cb; stroke:none;" d="M553 715L554 716L553 715z"/>
<path style="fill:#99c3b9; stroke:none;" d="M562 715L563 716L562 715z"/>
<path style="fill:#6bb5a7; stroke:none;" d="M569 715L570 716L569 715z"/>
<path style="fill:#99c3b9; stroke:none;" d="M579 715L580 716L579 715z"/>
<path style="fill:#6bb5a7; stroke:none;" d="M586 715L587 716L586 715M596 715L597 716L596 715M603 715L604 716L603 715M613 715L614 716L613 715M620 715L621 716L620 715M630 715L631 716L630 715z"/>
<path style="fill:#99c3b9; stroke:none;" d="M637 715L638 716L637 715z"/>
<path style="fill:#c9d3cb; stroke:none;" d="M646 715L647 716L646 715z"/>
<path style="fill:#99c3b9; stroke:none;" d="M654 715L655 716L654 715z"/>
<path style="fill:#c9d3cb; stroke:none;" d="M663 715L664 716L663 715z"/>
<path style="fill:#6bb5a7; stroke:none;" d="M680 715L681 716L680 715z"/>
<path style="fill:#99c3b9; stroke:none;" d="M519 716L520 717L519 716z"/>
<path style="fill:#c9d3cb; stroke:none;" d="M525 716L526 717L525 716z"/>
<path style="fill:#6bb5a7; stroke:none;" d="M538 716L538 717L544 717L538 716M554 716L554 717L561 717L554 716M571 716L571 717L578 717L571 716M588 716L588 717L595 717L588 716M605 716L605 717L612 717L605 716M622 716L622 717L629 717L622 716M639 716L639 717L646 717L639 716M656 716L656 717L663 717L656 716z"/>
<path style="fill:#c9d3cb; stroke:none;" d="M674 716L675 717L674 716z"/>
<path style="fill:#99c3b9; stroke:none;" d="M680 716L681 717L680 716z"/>
<path style="fill:#6bb5a7; stroke:none;" d="M518 717L519 718L518 717M681 717L682 718L681 717z"/>
<path style="fill:#99c3b9; stroke:none;" d="M518 718L519 719L518 718z"/>
<path style="fill:#c9d3cb; stroke:none;" d="M524 718L525 719L524 718M675 718L676 719L675 718z"/>
<path style="fill:#99c3b9; stroke:none;" d="M681 718L682 719L681 718z"/>
<path style="fill:#6bb5a7; stroke:none;" d="M517 719L518 720L517 719M682 719L683 720L682 719z"/>
<path style="fill:#99c3b9; stroke:none;" d="M517 720L518 721L517 720z"/>
<path style="fill:#c9d3cb; stroke:none;" d="M523 720L524 721L523 720M676 720L677 721L676 720z"/>
<path style="fill:#99c3b9; stroke:none;" d="M682 720L683 721L682 720z"/>
<path style="fill:#6bb5a7; stroke:none;" d="M516 721L517 722L516 721M683 721L684 722L683 721z"/>
<path style="fill:#99c3b9; stroke:none;" d="M516 722L517 723L516 722z"/>
<path style="fill:#c9d3cb; stroke:none;" d="M522 722L523 723L522 722z"/>
<path style="fill:#6bb5a7; stroke:none;" d="M544 722L545 723L544 722z"/>
<path style="fill:#c9d3cb; stroke:none;" d="M545 722L546 723L545 722z"/>
<path style="fill:#f5e1db; stroke:none;" d="M544 723C547.17 732.551 559.712 721.786 548.044 722.198C546.674 722.246 545.318 722.687 544 723z"/>
<path style="fill:#c9d3cb; stroke:none;" d="M553 722L554 723L553 722z"/>
<path style="fill:#6bb5a7; stroke:none;" d="M561 722L560 726L561 726L561 722z"/>
<path style="fill:#f5e1db; stroke:none;" d="M571 727C569.297 716.798 555.897 726.326 566.96 726.981C568.294 727.06 569.665 726.999 571 727z"/>
<path style="fill:#c9d3cb; stroke:none;" d="M570 722L571 723L570 722z"/>
<path style="fill:#99c3b9; stroke:none;" d="M578 722L579 723L578 722z"/>
<path style="fill:#f5e1db; stroke:none;" d="M579.662 723.008C576.44 725.712 582.381 726.909 584.005 726.981C593.298 727.39 602.697 727.004 612 727C614.32 726.999 619.331 727.815 620.824 725.455C623.202 721.698 614.516 722.003 613 722L589 722C586.4 722 581.822 721.196 579.662 723.008z"/>
<path style="fill:#6bb5a7; stroke:none;" d="M621 722L622 723L621 722z"/>
<path style="fill:#c9d3cb; stroke:none;" d="M629 722L630 723L629 722z"/>
<path style="fill:#f5e1db; stroke:none;" d="M629 727C630.335 726.999 631.706 727.06 633.04 726.981C644.103 726.326 630.703 716.798 629 727z"/>
<path style="fill:#6bb5a7; stroke:none;" d="M638 722L639 723L638 722z"/>
<path style="fill:#c9d3cb; stroke:none;" d="M646 722L645 724L646 722z"/>
<path style="fill:#f5e1db; stroke:none;" d="M656 723C654.682 722.687 653.326 722.246 651.956 722.198C640.288 721.787 652.83 732.551 656 723z"/>
<path style="fill:#c9d3cb; stroke:none;" d="M654 722L655 723L654 722z"/>
<path style="fill:#6bb5a7; stroke:none;" d="M655 722L656 723L655 722z"/>
<path style="fill:#c9d3cb; stroke:none;" d="M677 722L678 723L677 722z"/>
<path style="fill:#99c3b9; stroke:none;" d="M683 722L684 723L683 722z"/>
<path style="fill:#6bb5a7; stroke:none;" d="M515 723L516 724L515 723z"/>
<path style="fill:#c9d3cb; stroke:none;" d="M554 723L555 724L554 723z"/>
<path style="fill:#99c3b9; stroke:none;" d="M571 723L572 724L571 723z"/>
<path style="fill:#6bb5a7; stroke:none;" d="M577 723L578 724L577 723M622 723L623 724L622 723z"/>
<path style="fill:#99c3b9; stroke:none;" d="M628 723L629 724L628 723z"/>
<path style="fill:#6bb5a7; stroke:none;" d="M639 723L639 726L640 726L639 723M684 723L685 724L684 723z"/>
<path style="fill:#99c3b9; stroke:none;" d="M515 724L516 725L515 724z"/>
<path style="fill:#c9d3cb; stroke:none;" d="M521 724L522 725L521 724z"/>
<path style="fill:#6bb5a7; stroke:none;" d="M543 724L544 725L543 724z"/>
<path style="fill:#c9d3cb; stroke:none;" d="M571.333 724.667L571.667 725.333L571.333 724.667z"/>
<path style="fill:#99c3b9; stroke:none;" d="M577 724L578 725L577 724M622 724L623 725L622 724z"/>
<path style="fill:#c9d3cb; stroke:none;" d="M628.333 724.667L628.667 725.333L628.333 724.667z"/>
<path style="fill:#6bb5a7; stroke:none;" d="M656 724L657 725L656 724z"/>
<path style="fill:#c9d3cb; stroke:none;" d="M678 724L679 725L678 724z"/>
<path style="fill:#99c3b9; stroke:none;" d="M684 724L685 725L684 724z"/>
<path style="fill:#6bb5a7; stroke:none;" d="M514 725L515 726L514 725z"/>
<path style="fill:#c9d3cb; stroke:none;" d="M554 725L555 726L554 725z"/>
<path style="fill:#6bb5a7; stroke:none;" d="M577 725L578 726L577 725M622 725L623 726L622 725z"/>
<path style="fill:#c9d3cb; stroke:none;" d="M645 725L646 726L645 725z"/>
<path style="fill:#6bb5a7; stroke:none;" d="M685 725L686 726L685 725z"/>
<path style="fill:#99c3b9; stroke:none;" d="M514 726L515 727L514 726z"/>
<path style="fill:#c9d3cb; stroke:none;" d="M520 726L521 727L520 726z"/>
<path style="fill:#99c3b9; stroke:none;" d="M544 726L545 727L544 726z"/>
<path style="fill:#6bb5a7; stroke:none;" d="M554 726L555 727L554 726z"/>
<path style="fill:#99c3b9; stroke:none;" d="M561 726L562 727L561 726z"/>
<path style="fill:#6bb5a7; stroke:none;" d="M571 726L572 727L571 726z"/>
<path style="fill:#c9d3cb; stroke:none;" d="M578 726L579 727L578 726M621 726L622 727L621 726z"/>
<path style="fill:#6bb5a7; stroke:none;" d="M628 726L629 727L628 726z"/>
<path style="fill:#c9d3cb; stroke:none;" d="M638 726L639 727L638 726z"/>
<path style="fill:#6bb5a7; stroke:none;" d="M645 726L646 727L645 726z"/>
<path style="fill:#99c3b9; stroke:none;" d="M655 726L656 727L655 726z"/>
<path style="fill:#c9d3cb; stroke:none;" d="M679 726L680 727L679 726z"/>
<path style="fill:#99c3b9; stroke:none;" d="M685 726L686 727L685 726z"/>
<path style="fill:#6bb5a7; stroke:none;" d="M513 727L514 728L513 727M545 727L546 728L545 727z"/>
<path style="fill:#99c3b9; stroke:none;" d="M546 727L546 728L553 728L546 727z"/>
<path style="fill:#6bb5a7; stroke:none;" d="M553 727L554 728L553 727M562 727L563 728L562 727z"/>
<path style="fill:#99c3b9; stroke:none;" d="M563 727L563 728L570 728L563 727z"/>
<path style="fill:#6bb5a7; stroke:none;" d="M579 727L580 728L579 727z"/>
<path style="fill:#99c3b9; stroke:none;" d="M580 727L580 728L620 728C609.488 723.589 591.434 727 580 727z"/>
<path style="fill:#6bb5a7; stroke:none;" d="M620 727L621 728L620 727z"/>
<path style="fill:#99c3b9; stroke:none;" d="M630 727L630 728L637 728L630 727z"/>
<path style="fill:#6bb5a7; stroke:none;" d="M637 727L638 728L637 727M646 727L647 728L646 727z"/>
<path style="fill:#99c3b9; stroke:none;" d="M647 727L647 728L654 728L647 727z"/>
<path style="fill:#6bb5a7; stroke:none;" d="M654 727L655 728L654 727M686 727L687 728L686 727z"/>
<path style="fill:#99c3b9; stroke:none;" d="M513 728L514 729L513 728z"/>
<path style="fill:#c9d3cb; stroke:none;" d="M519 728L520 729L519 728M680 728L681 729L680 728z"/>
<path style="fill:#99c3b9; stroke:none;" d="M686 728L687 729L686 728z"/>
<path style="fill:#6bb5a7; stroke:none;" d="M512 729L513 730L512 729M687 729L688 730L687 729z"/>
<path style="fill:#99c3b9; stroke:none;" d="M512 730L513 731L512 730z"/>
<path style="fill:#c9d3cb; stroke:none;" d="M518 730L519 731L518 730M681 730L682 731L681 730z"/>
<path style="fill:#99c3b9; stroke:none;" d="M687 730L688 731L687 730z"/>
<path style="fill:#6bb5a7; stroke:none;" d="M511 731L512 732L511 731M688 731L689 732L688 731z"/>
<path style="fill:#99c3b9; stroke:none;" d="M511 732L512 733L511 732z"/>
<path style="fill:#c9d3cb; stroke:none;" d="M517 732C521.772 737.461 542.82 734 550 734L647 734C654.623 734 677.972 737.754 683 732C662.52 736.876 637.052 733 616 733L551 733C540.024 733 527.712 734.55 517 732z"/>
<path style="fill:#99c3b9; stroke:none;" d="M688 732L689 733L688 732M510 734L511 735L510 734M689.333 734.667L689.667 735.333L689.333 734.667z"/>
<path style="fill:#c9d3cb; stroke:none;" d="M510.333 735.667L510.667 736.333L510.333 735.667M689 736L690 737L689 736M515 748L516 748L516 739L685 739C674.496 734.592 656.42 738 645 738L553 738L527 738C524.089 738 519.053 737.088 516.603 739.028C514.254 740.888 515.002 745.374 515 748z"/>
<path style="fill:#41a799; stroke:none;" d="M516 739C516 741.66 515.232 746.038 517.028 748.258C518.946 750.628 523.327 749.996 526 750L551 750L652 750C664.787 750 683.998 755.528 684 739L516 739z"/>
<path style="fill:#99c3b9; stroke:none;" d="M684 739L684 747L685 747L684 739z"/>
<path style="fill:#c9d3cb; stroke:none;" d="M684 747L685 748L684 747M510.333 748.667L510.667 749.333L510.333 748.667M689.333 748.667L689.667 749.333L689.333 748.667M516 749L517 750L516 749z"/>
<path style="fill:#6bb5a7; stroke:none;" d="M517 749L518 750L517 749M682 749L683 750L682 749z"/>
<path style="fill:#c9d3cb; stroke:none;" d="M683 749L684 750L683 749z"/>
<path style="fill:#6bb5a7; stroke:none;" d="M510 750L511 751L510 750M689 750L690 751L689 750z"/>
<path style="fill:#c9d3cb; stroke:none;" d="M511 751L512 752L511 751M688 751L689 752L688 751z"/>
<path style="fill:#6bb5a7; stroke:none;" d="M511 752L512 753L511 752M512 753L513 754L512 753M687 753L688 754L687 753z"/>
<path style="fill:#c9d3cb; stroke:none;" d="M514 754L515 755L514 754z"/>
<path style="fill:#99c3b9; stroke:none;" d="M685 754L686 755L685 754M516.667 755.333L517.333 755.667L516.667 755.333z"/>
<path style="fill:#c9d3cb; stroke:none;" d="M518 755L518 756L682 756C669.355 750.694 646.777 755 633 755L518 755z"/>
<path style="fill:#99c3b9; stroke:none;" d="M682.667 755.333L683.333 755.667L682.667 755.333z"/>
<path style="fill:#f5e1db; stroke:none;" d="M390 810L390 825L810 825L810 810L390 810z"/>
</svg>
